<svg xmlns="http://www.w3.org/2000/svg" xmlns:xlink="http://www.w3.org/1999/xlink" width="1080" zoomAndPan="magnify" viewBox="0 0 810 809.999993" height="1080" preserveAspectRatio="xMidYMid meet" version="1.0"><defs><g/><clipPath id="ba9c507f54"><path d="M 149 282 L 261 282 L 261 291 L 149 291 Z M 149 282 " clip-rule="nonzero"/></clipPath><clipPath id="dde357b723"><path d="M 67.910156 260.601562 L 194.703125 142.570312 L 305.910156 262.03125 L 179.117188 380.0625 Z M 67.910156 260.601562 " clip-rule="nonzero"/></clipPath><clipPath id="bbe27e232e"><path d="M 67.910156 260.601562 L 194.703125 142.570312 L 305.910156 262.03125 L 179.117188 380.0625 Z M 67.910156 260.601562 " clip-rule="nonzero"/></clipPath><clipPath id="fcf8376173"><path d="M 125 282 L 142 282 L 142 291 L 125 291 Z M 125 282 " clip-rule="nonzero"/></clipPath><clipPath id="80e347077f"><path d="M 67.910156 260.601562 L 194.703125 142.570312 L 305.910156 262.03125 L 179.117188 380.0625 Z M 67.910156 260.601562 " clip-rule="nonzero"/></clipPath><clipPath id="2eff5cfb8c"><path d="M 67.910156 260.601562 L 194.703125 142.570312 L 305.910156 262.03125 L 179.117188 380.0625 Z M 67.910156 260.601562 " clip-rule="nonzero"/></clipPath><clipPath id="f7aa724dcc"><path d="M 94 258 L 175 258 L 175 267 L 94 267 Z M 94 258 " clip-rule="nonzero"/></clipPath><clipPath id="a5f6237604"><path d="M 67.910156 260.601562 L 194.703125 142.570312 L 305.910156 262.03125 L 179.117188 380.0625 Z M 67.910156 260.601562 " clip-rule="nonzero"/></clipPath><clipPath id="abac3c0db8"><path d="M 67.910156 260.601562 L 194.703125 142.570312 L 305.910156 262.03125 L 179.117188 380.0625 Z M 67.910156 260.601562 " clip-rule="nonzero"/></clipPath><clipPath id="fd5e7888bf"><path d="M 181 258 L 207 258 L 207 267 L 181 267 Z M 181 258 " clip-rule="nonzero"/></clipPath><clipPath id="cfd501e24a"><path d="M 67.910156 260.601562 L 194.703125 142.570312 L 305.910156 262.03125 L 179.117188 380.0625 Z M 67.910156 260.601562 " clip-rule="nonzero"/></clipPath><clipPath id="2685d88f8e"><path d="M 67.910156 260.601562 L 194.703125 142.570312 L 305.910156 262.03125 L 179.117188 380.0625 Z M 67.910156 260.601562 " clip-rule="nonzero"/></clipPath><clipPath id="5661c2c907"><path d="M 213 258 L 304 258 L 304 267 L 213 267 Z M 213 258 " clip-rule="nonzero"/></clipPath><clipPath id="ccf74343c4"><path d="M 67.910156 260.601562 L 194.703125 142.570312 L 305.910156 262.03125 L 179.117188 380.0625 Z M 67.910156 260.601562 " clip-rule="nonzero"/></clipPath><clipPath id="4b661598da"><path d="M 67.910156 260.601562 L 194.703125 142.570312 L 305.910156 262.03125 L 179.117188 380.0625 Z M 67.910156 260.601562 " clip-rule="nonzero"/></clipPath><clipPath id="26aca3ebff"><path d="M 72 259 L 87 259 L 87 267 L 72 267 Z M 72 259 " clip-rule="nonzero"/></clipPath><clipPath id="14defc848d"><path d="M 67.910156 260.601562 L 194.703125 142.570312 L 305.910156 262.03125 L 179.117188 380.0625 Z M 67.910156 260.601562 " clip-rule="nonzero"/></clipPath><clipPath id="33b7cfd0ce"><path d="M 67.910156 260.601562 L 194.703125 142.570312 L 305.910156 262.03125 L 179.117188 380.0625 Z M 67.910156 260.601562 " clip-rule="nonzero"/></clipPath><clipPath id="2a7a7561e9"><path d="M 89 238 L 241 238 L 241 247 L 89 247 Z M 89 238 " clip-rule="nonzero"/></clipPath><clipPath id="88e1644b10"><path d="M 67.910156 260.601562 L 194.703125 142.570312 L 305.910156 262.03125 L 179.117188 380.0625 Z M 67.910156 260.601562 " clip-rule="nonzero"/></clipPath><clipPath id="748fe81886"><path d="M 67.910156 260.601562 L 194.703125 142.570312 L 305.910156 262.03125 L 179.117188 380.0625 Z M 67.910156 260.601562 " clip-rule="nonzero"/></clipPath><clipPath id="9418cecb3b"><path d="M 387 282 L 499 282 L 499 291 L 387 291 Z M 387 282 " clip-rule="nonzero"/></clipPath><clipPath id="14dae289f2"><path d="M 306.085938 260.601562 L 432.875 142.570312 L 544.082031 262.03125 L 417.292969 380.0625 Z M 306.085938 260.601562 " clip-rule="nonzero"/></clipPath><clipPath id="f0c0dd6521"><path d="M 306.085938 260.601562 L 432.875 142.570312 L 544.082031 262.03125 L 417.292969 380.0625 Z M 306.085938 260.601562 " clip-rule="nonzero"/></clipPath><clipPath id="0817bf489b"><path d="M 364 282 L 380 282 L 380 291 L 364 291 Z M 364 282 " clip-rule="nonzero"/></clipPath><clipPath id="b8aebe6ebe"><path d="M 306.085938 260.601562 L 432.875 142.570312 L 544.082031 262.03125 L 417.292969 380.0625 Z M 306.085938 260.601562 " clip-rule="nonzero"/></clipPath><clipPath id="20e50397eb"><path d="M 306.085938 260.601562 L 432.875 142.570312 L 544.082031 262.03125 L 417.292969 380.0625 Z M 306.085938 260.601562 " clip-rule="nonzero"/></clipPath><clipPath id="be690819df"><path d="M 332 258 L 413 258 L 413 267 L 332 267 Z M 332 258 " clip-rule="nonzero"/></clipPath><clipPath id="51e83c1e83"><path d="M 306.085938 260.601562 L 432.875 142.570312 L 544.082031 262.03125 L 417.292969 380.0625 Z M 306.085938 260.601562 " clip-rule="nonzero"/></clipPath><clipPath id="7f70b80428"><path d="M 306.085938 260.601562 L 432.875 142.570312 L 544.082031 262.03125 L 417.292969 380.0625 Z M 306.085938 260.601562 " clip-rule="nonzero"/></clipPath><clipPath id="02722a9df4"><path d="M 419 258 L 445 258 L 445 267 L 419 267 Z M 419 258 " clip-rule="nonzero"/></clipPath><clipPath id="22252bac35"><path d="M 306.085938 260.601562 L 432.875 142.570312 L 544.082031 262.03125 L 417.292969 380.0625 Z M 306.085938 260.601562 " clip-rule="nonzero"/></clipPath><clipPath id="0e0ea8473b"><path d="M 306.085938 260.601562 L 432.875 142.570312 L 544.082031 262.03125 L 417.292969 380.0625 Z M 306.085938 260.601562 " clip-rule="nonzero"/></clipPath><clipPath id="79a586811a"><path d="M 451 258 L 543 258 L 543 267 L 451 267 Z M 451 258 " clip-rule="nonzero"/></clipPath><clipPath id="cf70983f20"><path d="M 306.085938 260.601562 L 432.875 142.570312 L 544.082031 262.03125 L 417.292969 380.0625 Z M 306.085938 260.601562 " clip-rule="nonzero"/></clipPath><clipPath id="3ad40bb85b"><path d="M 306.085938 260.601562 L 432.875 142.570312 L 544.082031 262.03125 L 417.292969 380.0625 Z M 306.085938 260.601562 " clip-rule="nonzero"/></clipPath><clipPath id="afb97b4610"><path d="M 310 259 L 326 259 L 326 267 L 310 267 Z M 310 259 " clip-rule="nonzero"/></clipPath><clipPath id="8986df9f42"><path d="M 306.085938 260.601562 L 432.875 142.570312 L 544.082031 262.03125 L 417.292969 380.0625 Z M 306.085938 260.601562 " clip-rule="nonzero"/></clipPath><clipPath id="abd6444e3a"><path d="M 306.085938 260.601562 L 432.875 142.570312 L 544.082031 262.03125 L 417.292969 380.0625 Z M 306.085938 260.601562 " clip-rule="nonzero"/></clipPath><clipPath id="772f15b9bb"><path d="M 327 238 L 479 238 L 479 247 L 327 247 Z M 327 238 " clip-rule="nonzero"/></clipPath><clipPath id="184b8e410c"><path d="M 306.085938 260.601562 L 432.875 142.570312 L 544.082031 262.03125 L 417.292969 380.0625 Z M 306.085938 260.601562 " clip-rule="nonzero"/></clipPath><clipPath id="dbb78faa07"><path d="M 306.085938 260.601562 L 432.875 142.570312 L 544.082031 262.03125 L 417.292969 380.0625 Z M 306.085938 260.601562 " clip-rule="nonzero"/></clipPath><clipPath id="3ba2db2839"><path d="M 549 233 L 661 233 L 661 243 L 549 243 Z M 549 233 " clip-rule="nonzero"/></clipPath><clipPath id="c25475b8fb"><path d="M 742.085938 266.203125 L 613.554688 382.335938 L 504.136719 261.234375 L 632.664062 145.101562 Z M 742.085938 266.203125 " clip-rule="nonzero"/></clipPath><clipPath id="10292c29bc"><path d="M 742.085938 266.203125 L 613.554688 382.335938 L 504.136719 261.234375 L 632.664062 145.101562 Z M 742.085938 266.203125 " clip-rule="nonzero"/></clipPath><clipPath id="bc795bac23"><path d="M 668 235 L 685 235 L 685 244 L 668 244 Z M 668 235 " clip-rule="nonzero"/></clipPath><clipPath id="ad3b571d7d"><path d="M 742.085938 266.203125 L 613.554688 382.335938 L 504.136719 261.234375 L 632.664062 145.101562 Z M 742.085938 266.203125 " clip-rule="nonzero"/></clipPath><clipPath id="ce367d2783"><path d="M 742.085938 266.203125 L 613.554688 382.335938 L 504.136719 261.234375 L 632.664062 145.101562 Z M 742.085938 266.203125 " clip-rule="nonzero"/></clipPath><clipPath id="20ee75fc40"><path d="M 635 258 L 716 258 L 716 268 L 635 268 Z M 635 258 " clip-rule="nonzero"/></clipPath><clipPath id="48027a78d7"><path d="M 742.085938 266.203125 L 613.554688 382.335938 L 504.136719 261.234375 L 632.664062 145.101562 Z M 742.085938 266.203125 " clip-rule="nonzero"/></clipPath><clipPath id="13f7a9a097"><path d="M 742.085938 266.203125 L 613.554688 382.335938 L 504.136719 261.234375 L 632.664062 145.101562 Z M 742.085938 266.203125 " clip-rule="nonzero"/></clipPath><clipPath id="dd86d4089a"><path d="M 603 258 L 629 258 L 629 267 L 603 267 Z M 603 258 " clip-rule="nonzero"/></clipPath><clipPath id="c778a0af3c"><path d="M 742.085938 266.203125 L 613.554688 382.335938 L 504.136719 261.234375 L 632.664062 145.101562 Z M 742.085938 266.203125 " clip-rule="nonzero"/></clipPath><clipPath id="bb37896177"><path d="M 742.085938 266.203125 L 613.554688 382.335938 L 504.136719 261.234375 L 632.664062 145.101562 Z M 742.085938 266.203125 " clip-rule="nonzero"/></clipPath><clipPath id="488beef8e9"><path d="M 506 257 L 597 257 L 597 267 L 506 267 Z M 506 257 " clip-rule="nonzero"/></clipPath><clipPath id="0274015e15"><path d="M 742.085938 266.203125 L 613.554688 382.335938 L 504.136719 261.234375 L 632.664062 145.101562 Z M 742.085938 266.203125 " clip-rule="nonzero"/></clipPath><clipPath id="5d68db4a09"><path d="M 742.085938 266.203125 L 613.554688 382.335938 L 504.136719 261.234375 L 632.664062 145.101562 Z M 742.085938 266.203125 " clip-rule="nonzero"/></clipPath><clipPath id="e6e69ade89"><path d="M 723 259 L 738 259 L 738 268 L 723 268 Z M 723 259 " clip-rule="nonzero"/></clipPath><clipPath id="1cf7c65d59"><path d="M 742.085938 266.203125 L 613.554688 382.335938 L 504.136719 261.234375 L 632.664062 145.101562 Z M 742.085938 266.203125 " clip-rule="nonzero"/></clipPath><clipPath id="0e5920bf38"><path d="M 742.085938 266.203125 L 613.554688 382.335938 L 504.136719 261.234375 L 632.664062 145.101562 Z M 742.085938 266.203125 " clip-rule="nonzero"/></clipPath><clipPath id="1ed0b72810"><path d="M 568 277 L 721 277 L 721 288 L 568 288 Z M 568 277 " clip-rule="nonzero"/></clipPath><clipPath id="c5a54d36bc"><path d="M 742.085938 266.203125 L 613.554688 382.335938 L 504.136719 261.234375 L 632.664062 145.101562 Z M 742.085938 266.203125 " clip-rule="nonzero"/></clipPath><clipPath id="ea38097293"><path d="M 742.085938 266.203125 L 613.554688 382.335938 L 504.136719 261.234375 L 632.664062 145.101562 Z M 742.085938 266.203125 " clip-rule="nonzero"/></clipPath></defs><g fill="#0d2648" fill-opacity="1"><g transform="translate(46.953288, 574.178267)"><g><path d="M 119.03125 2.59375 C 88.71875 2.59375 63.828125 -4.613281 44.359375 -19.03125 C 24.890625 -33.445312 14.414062 -54.085938 12.9375 -80.953125 L 90.203125 -80.953125 C 90.941406 -71.835938 93.648438 -65.1875 98.328125 -61 C 103.015625 -56.8125 109.054688 -54.71875 116.453125 -54.71875 C 123.097656 -54.71875 128.578125 -56.378906 132.890625 -59.703125 C 137.203125 -63.023438 139.359375 -67.644531 139.359375 -73.5625 C 139.359375 -81.207031 135.785156 -87.125 128.640625 -91.3125 C 121.492188 -95.5 109.910156 -100.179688 93.890625 -105.359375 C 76.890625 -111.023438 63.148438 -116.503906 52.671875 -121.796875 C 42.203125 -127.097656 33.082031 -134.863281 25.3125 -145.09375 C 17.550781 -155.320312 13.671875 -168.691406 13.671875 -185.203125 C 13.671875 -201.960938 17.859375 -216.316406 26.234375 -228.265625 C 34.617188 -240.222656 46.203125 -249.28125 60.984375 -255.4375 C 75.773438 -261.601562 92.535156 -264.6875 111.265625 -264.6875 C 141.578125 -264.6875 165.789062 -257.597656 183.90625 -243.421875 C 202.019531 -229.253906 211.695312 -209.359375 212.9375 -183.734375 L 134.1875 -183.734375 C 133.945312 -191.617188 131.546875 -197.53125 126.984375 -201.46875 C 122.421875 -205.414062 116.566406 -207.390625 109.421875 -207.390625 C 104.003906 -207.390625 99.566406 -205.785156 96.109375 -202.578125 C 92.660156 -199.378906 90.9375 -194.820312 90.9375 -188.90625 C 90.9375 -183.976562 92.847656 -179.722656 96.671875 -176.140625 C 100.492188 -172.566406 105.238281 -169.488281 110.90625 -166.90625 C 116.570312 -164.320312 124.953125 -161.054688 136.046875 -157.109375 C 152.554688 -151.441406 166.171875 -145.832031 176.890625 -140.28125 C 187.609375 -134.738281 196.847656 -126.976562 204.609375 -117 C 212.378906 -107.019531 216.265625 -94.390625 216.265625 -79.109375 C 216.265625 -63.585938 212.378906 -49.664062 204.609375 -37.34375 C 196.847656 -25.019531 185.632812 -15.28125 170.96875 -8.125 C 156.3125 -0.976562 139 2.59375 119.03125 2.59375 Z M 119.03125 2.59375 "/></g></g></g><g fill="#e44636" fill-opacity="1"><g transform="translate(289.831443, 574.178267)"><g><path d="M 93.15625 -260.625 L 93.15625 0 L 20.703125 0 L 20.703125 -260.625 Z M 93.15625 -260.625 "/></g></g></g><g fill="#f8bd00" fill-opacity="1"><g transform="translate(417.3722, 574.178267)"><g><path d="M 324.9375 -260.625 L 324.9375 0 L 252.484375 0 L 252.484375 -143.796875 L 203.3125 0 L 142.6875 0 L 93.15625 -144.90625 L 93.15625 0 L 20.703125 0 L 20.703125 -260.625 L 108.3125 -260.625 L 173.75 -91.3125 L 237.703125 -260.625 Z M 324.9375 -260.625 "/></g></g></g><g fill="#0d2648" fill-opacity="1"><g transform="translate(67.909073, 647.78686)"><g><path d="M 9.921875 0.25 C 7.140625 0.25 5.175781 -0.328125 4.03125 -1.484375 C 2.882812 -2.648438 2.3125 -4.609375 2.3125 -7.359375 L 2.3125 -10.40625 C 2.3125 -11.0625 2.640625 -11.390625 3.296875 -11.390625 L 8.296875 -11.390625 C 8.953125 -11.390625 9.28125 -11.0625 9.28125 -10.40625 L 9.28125 -7.359375 C 9.28125 -6.472656 9.46875 -5.84375 9.84375 -5.46875 C 10.21875 -5.09375 10.847656 -4.90625 11.734375 -4.90625 L 13.359375 -4.90625 C 14.234375 -4.90625 14.859375 -5.09375 15.234375 -5.46875 C 15.617188 -5.84375 15.8125 -6.472656 15.8125 -7.359375 L 15.8125 -12.765625 C 15.8125 -13.484375 15.628906 -14.003906 15.265625 -14.328125 C 14.910156 -14.660156 14.351562 -14.828125 13.59375 -14.828125 L 10.015625 -14.828125 C 7.328125 -14.828125 5.410156 -15.390625 4.265625 -16.515625 C 3.117188 -17.648438 2.546875 -19.539062 2.546875 -22.1875 L 2.546875 -26.75 C 2.546875 -29.53125 3.117188 -31.492188 4.265625 -32.640625 C 5.410156 -33.785156 7.375 -34.359375 10.15625 -34.359375 L 14.4375 -34.359375 C 17.21875 -34.359375 19.179688 -33.785156 20.328125 -32.640625 C 21.472656 -31.492188 22.046875 -29.53125 22.046875 -26.75 L 22.046875 -24.15625 C 22.046875 -23.5 21.71875 -23.171875 21.0625 -23.171875 L 16.046875 -23.171875 C 15.398438 -23.171875 15.078125 -23.5 15.078125 -24.15625 L 15.078125 -26.75 C 15.078125 -27.632812 14.882812 -28.265625 14.5 -28.640625 C 14.125 -29.015625 13.492188 -29.203125 12.609375 -29.203125 L 11.875 -29.203125 C 11 -29.203125 10.367188 -29.015625 9.984375 -28.640625 C 9.609375 -28.265625 9.421875 -27.632812 9.421875 -26.75 L 9.421875 -22.09375 C 9.421875 -21.375 9.59375 -20.84375 9.9375 -20.5 C 10.28125 -20.15625 10.847656 -19.984375 11.640625 -19.984375 L 15.171875 -19.984375 C 17.890625 -19.984375 19.820312 -19.414062 20.96875 -18.28125 C 22.113281 -17.15625 22.6875 -15.265625 22.6875 -12.609375 L 22.6875 -7.359375 C 22.6875 -4.609375 22.101562 -2.648438 20.9375 -1.484375 C 19.78125 -0.328125 17.828125 0.25 15.078125 0.25 Z M 9.921875 0.25 "/></g></g></g><g fill="#0d2648" fill-opacity="1"><g transform="translate(92.650583, 647.78686)"><g><path d="M 11.4375 -28.96875 L 11.4375 -5.40625 L 13.984375 -5.40625 C 14.640625 -5.40625 14.96875 -5.078125 14.96875 -4.421875 L 14.96875 -0.984375 C 14.96875 -0.328125 14.640625 0 13.984375 0 L 1.96875 0 C 1.3125 0 0.984375 -0.328125 0.984375 -0.984375 L 0.984375 -4.421875 C 0.984375 -5.078125 1.3125 -5.40625 1.96875 -5.40625 L 4.5625 -5.40625 L 4.5625 -28.96875 L 1.96875 -28.96875 C 1.3125 -28.96875 0.984375 -29.296875 0.984375 -29.953125 L 0.984375 -33.390625 C 0.984375 -34.035156 1.3125 -34.359375 1.96875 -34.359375 L 13.984375 -34.359375 C 14.640625 -34.359375 14.96875 -34.035156 14.96875 -33.390625 L 14.96875 -29.953125 C 14.96875 -29.296875 14.640625 -28.96875 13.984375 -28.96875 Z M 11.4375 -28.96875 "/></g></g></g><g fill="#0d2648" fill-opacity="1"><g transform="translate(108.604923, 647.78686)"><g><path d="M 9.921875 0.25 C 7.140625 0.25 5.175781 -0.328125 4.03125 -1.484375 C 2.882812 -2.648438 2.3125 -4.609375 2.3125 -7.359375 L 2.3125 -10.40625 C 2.3125 -11.0625 2.640625 -11.390625 3.296875 -11.390625 L 8.296875 -11.390625 C 8.953125 -11.390625 9.28125 -11.0625 9.28125 -10.40625 L 9.28125 -7.359375 C 9.28125 -6.472656 9.46875 -5.84375 9.84375 -5.46875 C 10.21875 -5.09375 10.847656 -4.90625 11.734375 -4.90625 L 13.359375 -4.90625 C 14.234375 -4.90625 14.859375 -5.09375 15.234375 -5.46875 C 15.617188 -5.84375 15.8125 -6.472656 15.8125 -7.359375 L 15.8125 -12.765625 C 15.8125 -13.484375 15.628906 -14.003906 15.265625 -14.328125 C 14.910156 -14.660156 14.351562 -14.828125 13.59375 -14.828125 L 10.015625 -14.828125 C 7.328125 -14.828125 5.410156 -15.390625 4.265625 -16.515625 C 3.117188 -17.648438 2.546875 -19.539062 2.546875 -22.1875 L 2.546875 -26.75 C 2.546875 -29.53125 3.117188 -31.492188 4.265625 -32.640625 C 5.410156 -33.785156 7.375 -34.359375 10.15625 -34.359375 L 14.4375 -34.359375 C 17.21875 -34.359375 19.179688 -33.785156 20.328125 -32.640625 C 21.472656 -31.492188 22.046875 -29.53125 22.046875 -26.75 L 22.046875 -24.15625 C 22.046875 -23.5 21.71875 -23.171875 21.0625 -23.171875 L 16.046875 -23.171875 C 15.398438 -23.171875 15.078125 -23.5 15.078125 -24.15625 L 15.078125 -26.75 C 15.078125 -27.632812 14.882812 -28.265625 14.5 -28.640625 C 14.125 -29.015625 13.492188 -29.203125 12.609375 -29.203125 L 11.875 -29.203125 C 11 -29.203125 10.367188 -29.015625 9.984375 -28.640625 C 9.609375 -28.265625 9.421875 -27.632812 9.421875 -26.75 L 9.421875 -22.09375 C 9.421875 -21.375 9.59375 -20.84375 9.9375 -20.5 C 10.28125 -20.15625 10.847656 -19.984375 11.640625 -19.984375 L 15.171875 -19.984375 C 17.890625 -19.984375 19.820312 -19.414062 20.96875 -18.28125 C 22.113281 -17.15625 22.6875 -15.265625 22.6875 -12.609375 L 22.6875 -7.359375 C 22.6875 -4.609375 22.101562 -2.648438 20.9375 -1.484375 C 19.78125 -0.328125 17.828125 0.25 15.078125 0.25 Z M 9.921875 0.25 "/></g></g></g><g fill="#0d2648" fill-opacity="1"><g transform="translate(133.346433, 647.78686)"><g><path d="M 20.125 -34.359375 C 20.78125 -34.359375 21.109375 -34.035156 21.109375 -33.390625 L 21.109375 -29.453125 C 21.109375 -28.796875 20.78125 -28.46875 20.125 -28.46875 L 14.140625 -28.46875 L 14.140625 -0.984375 C 14.140625 -0.328125 13.8125 0 13.15625 0 L 8.25 0 C 7.59375 0 7.265625 -0.328125 7.265625 -0.984375 L 7.265625 -28.46875 L 1.234375 -28.46875 C 0.578125 -28.46875 0.25 -28.796875 0.25 -29.453125 L 0.25 -33.390625 C 0.25 -34.035156 0.578125 -34.359375 1.234375 -34.359375 Z M 20.125 -34.359375 "/></g></g></g><g fill="#0d2648" fill-opacity="1"><g transform="translate(154.70072, 647.78686)"><g><path d="M 19.78125 -5.640625 C 20.4375 -5.640625 20.765625 -5.3125 20.765625 -4.65625 L 20.765625 -0.984375 C 20.765625 -0.328125 20.4375 0 19.78125 0 L 3.828125 0 C 3.171875 0 2.84375 -0.328125 2.84375 -0.984375 L 2.84375 -33.390625 C 2.84375 -34.035156 3.171875 -34.359375 3.828125 -34.359375 L 19.296875 -34.359375 C 19.953125 -34.359375 20.28125 -34.035156 20.28125 -33.390625 L 20.28125 -29.703125 C 20.28125 -29.046875 19.953125 -28.71875 19.296875 -28.71875 L 9.71875 -28.71875 L 9.71875 -20.28125 L 16.34375 -20.28125 C 17 -20.28125 17.328125 -19.953125 17.328125 -19.296875 L 17.328125 -15.609375 C 17.328125 -14.953125 17 -14.625 16.34375 -14.625 L 9.71875 -14.625 L 9.71875 -5.640625 Z M 19.78125 -5.640625 "/></g></g></g><g fill="#0d2648" fill-opacity="1"><g transform="translate(176.055006, 647.78686)"><g><path d="M 3.828125 0 C 3.171875 0 2.84375 -0.328125 2.84375 -0.984375 L 2.84375 -33.390625 C 2.84375 -34.035156 3.171875 -34.359375 3.828125 -34.359375 L 9.765625 -34.359375 C 10.097656 -34.359375 10.34375 -34.289062 10.5 -34.15625 C 10.664062 -34.03125 10.78125 -33.820312 10.84375 -33.53125 L 15.171875 -17.421875 L 16.046875 -17.421875 L 20.328125 -33.53125 C 20.453125 -34.082031 20.828125 -34.359375 21.453125 -34.359375 L 27.390625 -34.359375 C 28.046875 -34.359375 28.375 -34.035156 28.375 -33.390625 L 28.375 -0.984375 C 28.375 -0.328125 28.046875 0 27.390625 0 L 22.734375 0 C 22.078125 0 21.75 -0.328125 21.75 -0.984375 L 21.75 -12.421875 L 24.0625 -24.796875 L 23.171875 -24.796875 L 18.171875 -8.203125 C 18.066406 -7.898438 17.929688 -7.679688 17.765625 -7.546875 C 17.609375 -7.421875 17.378906 -7.359375 17.078125 -7.359375 L 14.140625 -7.359375 C 13.804688 -7.359375 13.554688 -7.421875 13.390625 -7.546875 C 13.234375 -7.679688 13.109375 -7.898438 13.015625 -8.203125 L 8.046875 -24.796875 L 7.171875 -24.796875 L 9.46875 -12.421875 L 9.46875 -0.984375 C 9.46875 -0.328125 9.144531 0 8.5 0 Z M 3.828125 0 "/></g></g></g><g fill="#0d2648" fill-opacity="1"><g transform="translate(207.276437, 647.78686)"><g><path d="M 21.703125 -1.234375 C 21.734375 -1.128906 21.75 -1.015625 21.75 -0.890625 C 21.75 -0.296875 21.40625 0 20.71875 0 L 16.046875 0 C 15.722656 0 15.476562 -0.0625 15.3125 -0.1875 C 15.15625 -0.320312 15.054688 -0.554688 15.015625 -0.890625 L 14.140625 -6.03125 L 7.703125 -6.03125 L 6.828125 -0.890625 C 6.796875 -0.554688 6.695312 -0.320312 6.53125 -0.1875 C 6.363281 -0.0625 6.117188 0 5.796875 0 L 1.171875 0 C 0.328125 0 -0.015625 -0.410156 0.140625 -1.234375 L 6.53125 -33.53125 C 6.59375 -33.851562 6.695312 -34.070312 6.84375 -34.1875 C 6.988281 -34.300781 7.226562 -34.359375 7.5625 -34.359375 L 14.28125 -34.359375 C 14.613281 -34.359375 14.851562 -34.300781 15 -34.1875 C 15.144531 -34.070312 15.25 -33.851562 15.3125 -33.53125 Z M 11.296875 -26.515625 L 10.5625 -26.515625 L 9.71875 -18.953125 L 8.34375 -11.296875 L 13.453125 -11.296875 L 12.125 -18.953125 Z M 11.296875 -26.515625 "/></g></g></g><g fill="#0d2648" fill-opacity="1"><g transform="translate(229.121629, 647.78686)"><g/></g></g><g fill="#0d2648" fill-opacity="1"><g transform="translate(238.69423, 647.78686)"><g><path d="M 11.4375 -28.96875 L 11.4375 -5.40625 L 13.984375 -5.40625 C 14.640625 -5.40625 14.96875 -5.078125 14.96875 -4.421875 L 14.96875 -0.984375 C 14.96875 -0.328125 14.640625 0 13.984375 0 L 1.96875 0 C 1.3125 0 0.984375 -0.328125 0.984375 -0.984375 L 0.984375 -4.421875 C 0.984375 -5.078125 1.3125 -5.40625 1.96875 -5.40625 L 4.5625 -5.40625 L 4.5625 -28.96875 L 1.96875 -28.96875 C 1.3125 -28.96875 0.984375 -29.296875 0.984375 -29.953125 L 0.984375 -33.390625 C 0.984375 -34.035156 1.3125 -34.359375 1.96875 -34.359375 L 13.984375 -34.359375 C 14.640625 -34.359375 14.96875 -34.035156 14.96875 -33.390625 L 14.96875 -29.953125 C 14.96875 -29.296875 14.640625 -28.96875 13.984375 -28.96875 Z M 11.4375 -28.96875 "/></g></g></g><g fill="#0d2648" fill-opacity="1"><g transform="translate(254.64857, 647.78686)"><g><path d="M 3.828125 0 C 3.171875 0 2.84375 -0.328125 2.84375 -0.984375 L 2.84375 -33.390625 C 2.84375 -34.035156 3.171875 -34.359375 3.828125 -34.359375 L 9.078125 -34.359375 C 9.410156 -34.359375 9.65625 -34.289062 9.8125 -34.15625 C 9.976562 -34.03125 10.113281 -33.835938 10.21875 -33.578125 L 17.828125 -9.578125 L 18.65625 -9.578125 L 16.34375 -20.28125 L 16.34375 -33.390625 C 16.34375 -34.035156 16.671875 -34.359375 17.328125 -34.359375 L 22 -34.359375 C 22.644531 -34.359375 22.96875 -34.035156 22.96875 -33.390625 L 22.96875 -0.984375 C 22.96875 -0.328125 22.644531 0 22 0 L 16.6875 0 C 16.394531 0 16.164062 -0.0625 16 -0.1875 C 15.84375 -0.320312 15.710938 -0.535156 15.609375 -0.828125 L 8 -24.796875 L 7.125 -24.796875 L 9.46875 -14.09375 L 9.46875 -0.984375 C 9.46875 -0.328125 9.144531 0 8.5 0 Z M 3.828125 0 "/></g></g></g><g fill="#0d2648" fill-opacity="1"><g transform="translate(280.470072, 647.78686)"><g><path d="M 20.125 -34.359375 C 20.78125 -34.359375 21.109375 -34.035156 21.109375 -33.390625 L 21.109375 -29.453125 C 21.109375 -28.796875 20.78125 -28.46875 20.125 -28.46875 L 14.140625 -28.46875 L 14.140625 -0.984375 C 14.140625 -0.328125 13.8125 0 13.15625 0 L 8.25 0 C 7.59375 0 7.265625 -0.328125 7.265625 -0.984375 L 7.265625 -28.46875 L 1.234375 -28.46875 C 0.578125 -28.46875 0.25 -28.796875 0.25 -29.453125 L 0.25 -33.390625 C 0.25 -34.035156 0.578125 -34.359375 1.234375 -34.359375 Z M 20.125 -34.359375 "/></g></g></g><g fill="#0d2648" fill-opacity="1"><g transform="translate(301.824359, 647.78686)"><g><path d="M 19.78125 -5.640625 C 20.4375 -5.640625 20.765625 -5.3125 20.765625 -4.65625 L 20.765625 -0.984375 C 20.765625 -0.328125 20.4375 0 19.78125 0 L 3.828125 0 C 3.171875 0 2.84375 -0.328125 2.84375 -0.984375 L 2.84375 -33.390625 C 2.84375 -34.035156 3.171875 -34.359375 3.828125 -34.359375 L 19.296875 -34.359375 C 19.953125 -34.359375 20.28125 -34.035156 20.28125 -33.390625 L 20.28125 -29.703125 C 20.28125 -29.046875 19.953125 -28.71875 19.296875 -28.71875 L 9.71875 -28.71875 L 9.71875 -20.28125 L 16.34375 -20.28125 C 17 -20.28125 17.328125 -19.953125 17.328125 -19.296875 L 17.328125 -15.609375 C 17.328125 -14.953125 17 -14.625 16.34375 -14.625 L 9.71875 -14.625 L 9.71875 -5.640625 Z M 19.78125 -5.640625 "/></g></g></g><g fill="#0d2648" fill-opacity="1"><g transform="translate(323.178646, 647.78686)"><g><path d="M 9.578125 0.25 C 7.316406 0.25 5.585938 -0.347656 4.390625 -1.546875 C 3.203125 -2.742188 2.609375 -4.488281 2.609375 -6.78125 L 2.609375 -27.640625 C 2.609375 -29.898438 3.203125 -31.625 4.390625 -32.8125 C 5.585938 -34.007812 7.316406 -34.609375 9.578125 -34.609375 L 15.859375 -34.609375 C 18.117188 -34.609375 19.84375 -34.007812 21.03125 -32.8125 C 22.226562 -31.625 22.828125 -29.898438 22.828125 -27.640625 L 22.828125 -23.71875 C 22.828125 -23.0625 22.5 -22.734375 21.84375 -22.734375 L 16.84375 -22.734375 C 16.1875 -22.734375 15.859375 -23.0625 15.859375 -23.71875 L 15.859375 -26.609375 C 15.859375 -27.585938 15.6875 -28.25 15.34375 -28.59375 C 15 -28.9375 14.335938 -29.109375 13.359375 -29.109375 L 11.984375 -29.109375 C 10.992188 -29.109375 10.328125 -28.9375 9.984375 -28.59375 C 9.640625 -28.25 9.46875 -27.585938 9.46875 -26.609375 L 9.46875 -7.8125 C 9.46875 -6.820312 9.640625 -6.15625 9.984375 -5.8125 C 10.328125 -5.46875 10.992188 -5.296875 11.984375 -5.296875 L 13.703125 -5.296875 C 14.679688 -5.296875 15.34375 -5.46875 15.6875 -5.8125 C 16.03125 -6.15625 16.203125 -6.820312 16.203125 -7.8125 L 16.203125 -13.15625 L 13.5 -13.15625 C 12.84375 -13.15625 12.515625 -13.484375 12.515625 -14.140625 L 12.515625 -17.421875 C 12.515625 -18.078125 12.84375 -18.40625 13.5 -18.40625 L 21.84375 -18.40625 C 22.5 -18.40625 22.828125 -18.078125 22.828125 -17.421875 L 22.828125 -6.78125 C 22.828125 -4.488281 22.226562 -2.742188 21.03125 -1.546875 C 19.84375 -0.347656 18.117188 0.25 15.859375 0.25 Z M 9.578125 0.25 "/></g></g></g><g fill="#0d2648" fill-opacity="1"><g transform="translate(348.607424, 647.78686)"><g><path d="M 23.078125 -1.328125 C 23.171875 -1.128906 23.21875 -0.945312 23.21875 -0.78125 C 23.21875 -0.257812 22.84375 0 22.09375 0 L 17.328125 0 C 17.035156 0 16.796875 -0.0546875 16.609375 -0.171875 C 16.429688 -0.285156 16.28125 -0.488281 16.15625 -0.78125 L 10.609375 -13.796875 L 9.71875 -13.796875 L 9.71875 -0.984375 C 9.71875 -0.328125 9.390625 0 8.734375 0 L 3.828125 0 C 3.171875 0 2.84375 -0.328125 2.84375 -0.984375 L 2.84375 -33.390625 C 2.84375 -34.035156 3.171875 -34.359375 3.828125 -34.359375 L 14.875 -34.359375 C 17.625 -34.359375 19.578125 -33.785156 20.734375 -32.640625 C 21.898438 -31.492188 22.484375 -29.53125 22.484375 -26.75 L 22.484375 -21.40625 C 22.484375 -19.175781 22.109375 -17.472656 21.359375 -16.296875 C 20.609375 -15.117188 19.378906 -14.367188 17.671875 -14.046875 Z M 9.71875 -29.109375 L 9.71875 -18.5625 L 13.15625 -18.5625 C 14.039062 -18.5625 14.671875 -18.75 15.046875 -19.125 C 15.421875 -19.5 15.609375 -20.128906 15.609375 -21.015625 L 15.609375 -26.65625 C 15.609375 -27.539062 15.421875 -28.171875 15.046875 -28.546875 C 14.671875 -28.921875 14.039062 -29.109375 13.15625 -29.109375 Z M 9.71875 -29.109375 "/></g></g></g><g fill="#0d2648" fill-opacity="1"><g transform="translate(372.907127, 647.78686)"><g><path d="M 21.703125 -1.234375 C 21.734375 -1.128906 21.75 -1.015625 21.75 -0.890625 C 21.75 -0.296875 21.40625 0 20.71875 0 L 16.046875 0 C 15.722656 0 15.476562 -0.0625 15.3125 -0.1875 C 15.15625 -0.320312 15.054688 -0.554688 15.015625 -0.890625 L 14.140625 -6.03125 L 7.703125 -6.03125 L 6.828125 -0.890625 C 6.796875 -0.554688 6.695312 -0.320312 6.53125 -0.1875 C 6.363281 -0.0625 6.117188 0 5.796875 0 L 1.171875 0 C 0.328125 0 -0.015625 -0.410156 0.140625 -1.234375 L 6.53125 -33.53125 C 6.59375 -33.851562 6.695312 -34.070312 6.84375 -34.1875 C 6.988281 -34.300781 7.226562 -34.359375 7.5625 -34.359375 L 14.28125 -34.359375 C 14.613281 -34.359375 14.851562 -34.300781 15 -34.1875 C 15.144531 -34.070312 15.25 -33.851562 15.3125 -33.53125 Z M 11.296875 -26.515625 L 10.5625 -26.515625 L 9.71875 -18.953125 L 8.34375 -11.296875 L 13.453125 -11.296875 L 12.125 -18.953125 Z M 11.296875 -26.515625 "/></g></g></g><g fill="#0d2648" fill-opacity="1"><g transform="translate(394.752319, 647.78686)"><g><path d="M 15.953125 -34.359375 C 18.242188 -34.359375 19.984375 -33.757812 21.171875 -32.5625 C 22.367188 -31.375 22.96875 -29.648438 22.96875 -27.390625 L 22.96875 -7.015625 C 22.96875 -4.722656 22.367188 -2.976562 21.171875 -1.78125 C 19.984375 -0.59375 18.242188 0 15.953125 0 L 3.828125 0 C 3.171875 0 2.84375 -0.328125 2.84375 -0.984375 L 2.84375 -33.390625 C 2.84375 -34.035156 3.171875 -34.359375 3.828125 -34.359375 Z M 16.109375 -26.125 C 16.109375 -27.101562 15.9375 -27.765625 15.59375 -28.109375 C 15.25 -28.453125 14.582031 -28.625 13.59375 -28.625 L 9.71875 -28.625 L 9.71875 -5.796875 L 13.59375 -5.796875 C 14.582031 -5.796875 15.25 -5.96875 15.59375 -6.3125 C 15.9375 -6.65625 16.109375 -7.316406 16.109375 -8.296875 Z M 16.109375 -26.125 "/></g></g></g><g fill="#0d2648" fill-opacity="1"><g transform="translate(420.328359, 647.78686)"><g><path d="M 9.578125 0.25 C 7.316406 0.25 5.585938 -0.347656 4.390625 -1.546875 C 3.203125 -2.742188 2.609375 -4.488281 2.609375 -6.78125 L 2.609375 -27.640625 C 2.609375 -29.898438 3.203125 -31.625 4.390625 -32.8125 C 5.585938 -34.007812 7.316406 -34.609375 9.578125 -34.609375 L 16.203125 -34.609375 C 18.492188 -34.609375 20.234375 -34.007812 21.421875 -32.8125 C 22.617188 -31.625 23.21875 -29.898438 23.21875 -27.640625 L 23.21875 -6.78125 C 23.21875 -4.488281 22.617188 -2.742188 21.421875 -1.546875 C 20.234375 -0.347656 18.492188 0.25 16.203125 0.25 Z M 13.84375 -5.546875 C 14.820312 -5.546875 15.484375 -5.71875 15.828125 -6.0625 C 16.171875 -6.40625 16.34375 -7.066406 16.34375 -8.046875 L 16.34375 -26.359375 C 16.34375 -27.347656 16.171875 -28.007812 15.828125 -28.34375 C 15.484375 -28.6875 14.820312 -28.859375 13.84375 -28.859375 L 11.984375 -28.859375 C 10.992188 -28.859375 10.328125 -28.6875 9.984375 -28.34375 C 9.640625 -28.007812 9.46875 -27.347656 9.46875 -26.359375 L 9.46875 -8.046875 C 9.46875 -7.066406 9.640625 -6.40625 9.984375 -6.0625 C 10.328125 -5.71875 10.992188 -5.546875 11.984375 -5.546875 Z M 13.84375 -5.546875 "/></g></g></g><g fill="#0d2648" fill-opacity="1"><g transform="translate(446.149843, 647.78686)"><g/></g></g><g fill="#0d2648" fill-opacity="1"><g transform="translate(455.722444, 647.78686)"><g><path d="M 3.828125 0 C 3.171875 0 2.84375 -0.328125 2.84375 -0.984375 L 2.84375 -33.390625 C 2.84375 -34.035156 3.171875 -34.359375 3.828125 -34.359375 L 9.765625 -34.359375 C 10.097656 -34.359375 10.34375 -34.289062 10.5 -34.15625 C 10.664062 -34.03125 10.78125 -33.820312 10.84375 -33.53125 L 15.171875 -17.421875 L 16.046875 -17.421875 L 20.328125 -33.53125 C 20.453125 -34.082031 20.828125 -34.359375 21.453125 -34.359375 L 27.390625 -34.359375 C 28.046875 -34.359375 28.375 -34.035156 28.375 -33.390625 L 28.375 -0.984375 C 28.375 -0.328125 28.046875 0 27.390625 0 L 22.734375 0 C 22.078125 0 21.75 -0.328125 21.75 -0.984375 L 21.75 -12.421875 L 24.0625 -24.796875 L 23.171875 -24.796875 L 18.171875 -8.203125 C 18.066406 -7.898438 17.929688 -7.679688 17.765625 -7.546875 C 17.609375 -7.421875 17.378906 -7.359375 17.078125 -7.359375 L 14.140625 -7.359375 C 13.804688 -7.359375 13.554688 -7.421875 13.390625 -7.546875 C 13.234375 -7.679688 13.109375 -7.898438 13.015625 -8.203125 L 8.046875 -24.796875 L 7.171875 -24.796875 L 9.46875 -12.421875 L 9.46875 -0.984375 C 9.46875 -0.328125 9.144531 0 8.5 0 Z M 3.828125 0 "/></g></g></g><g fill="#0d2648" fill-opacity="1"><g transform="translate(486.943874, 647.78686)"><g><path d="M 19.78125 -5.640625 C 20.4375 -5.640625 20.765625 -5.3125 20.765625 -4.65625 L 20.765625 -0.984375 C 20.765625 -0.328125 20.4375 0 19.78125 0 L 3.828125 0 C 3.171875 0 2.84375 -0.328125 2.84375 -0.984375 L 2.84375 -33.390625 C 2.84375 -34.035156 3.171875 -34.359375 3.828125 -34.359375 L 19.296875 -34.359375 C 19.953125 -34.359375 20.28125 -34.035156 20.28125 -33.390625 L 20.28125 -29.703125 C 20.28125 -29.046875 19.953125 -28.71875 19.296875 -28.71875 L 9.71875 -28.71875 L 9.71875 -20.28125 L 16.34375 -20.28125 C 17 -20.28125 17.328125 -19.953125 17.328125 -19.296875 L 17.328125 -15.609375 C 17.328125 -14.953125 17 -14.625 16.34375 -14.625 L 9.71875 -14.625 L 9.71875 -5.640625 Z M 19.78125 -5.640625 "/></g></g></g><g fill="#0d2648" fill-opacity="1"><g transform="translate(508.298143, 647.78686)"><g><path d="M 20.125 -34.359375 C 20.78125 -34.359375 21.109375 -34.035156 21.109375 -33.390625 L 21.109375 -29.453125 C 21.109375 -28.796875 20.78125 -28.46875 20.125 -28.46875 L 14.140625 -28.46875 L 14.140625 -0.984375 C 14.140625 -0.328125 13.8125 0 13.15625 0 L 8.25 0 C 7.59375 0 7.265625 -0.328125 7.265625 -0.984375 L 7.265625 -28.46875 L 1.234375 -28.46875 C 0.578125 -28.46875 0.25 -28.796875 0.25 -29.453125 L 0.25 -33.390625 C 0.25 -34.035156 0.578125 -34.359375 1.234375 -34.359375 Z M 20.125 -34.359375 "/></g></g></g><g fill="#0d2648" fill-opacity="1"><g transform="translate(529.652448, 647.78686)"><g><path d="M 23.078125 -1.328125 C 23.171875 -1.128906 23.21875 -0.945312 23.21875 -0.78125 C 23.21875 -0.257812 22.84375 0 22.09375 0 L 17.328125 0 C 17.035156 0 16.796875 -0.0546875 16.609375 -0.171875 C 16.429688 -0.285156 16.28125 -0.488281 16.15625 -0.78125 L 10.609375 -13.796875 L 9.71875 -13.796875 L 9.71875 -0.984375 C 9.71875 -0.328125 9.390625 0 8.734375 0 L 3.828125 0 C 3.171875 0 2.84375 -0.328125 2.84375 -0.984375 L 2.84375 -33.390625 C 2.84375 -34.035156 3.171875 -34.359375 3.828125 -34.359375 L 14.875 -34.359375 C 17.625 -34.359375 19.578125 -33.785156 20.734375 -32.640625 C 21.898438 -31.492188 22.484375 -29.53125 22.484375 -26.75 L 22.484375 -21.40625 C 22.484375 -19.175781 22.109375 -17.472656 21.359375 -16.296875 C 20.609375 -15.117188 19.378906 -14.367188 17.671875 -14.046875 Z M 9.71875 -29.109375 L 9.71875 -18.5625 L 13.15625 -18.5625 C 14.039062 -18.5625 14.671875 -18.75 15.046875 -19.125 C 15.421875 -19.5 15.609375 -20.128906 15.609375 -21.015625 L 15.609375 -26.65625 C 15.609375 -27.539062 15.421875 -28.171875 15.046875 -28.546875 C 14.671875 -28.921875 14.039062 -29.109375 13.15625 -29.109375 Z M 9.71875 -29.109375 "/></g></g></g><g fill="#0d2648" fill-opacity="1"><g transform="translate(553.95215, 647.78686)"><g><path d="M 9.578125 0.25 C 7.316406 0.25 5.585938 -0.347656 4.390625 -1.546875 C 3.203125 -2.742188 2.609375 -4.488281 2.609375 -6.78125 L 2.609375 -27.640625 C 2.609375 -29.898438 3.203125 -31.625 4.390625 -32.8125 C 5.585938 -34.007812 7.316406 -34.609375 9.578125 -34.609375 L 16.203125 -34.609375 C 18.492188 -34.609375 20.234375 -34.007812 21.421875 -32.8125 C 22.617188 -31.625 23.21875 -29.898438 23.21875 -27.640625 L 23.21875 -6.78125 C 23.21875 -4.488281 22.617188 -2.742188 21.421875 -1.546875 C 20.234375 -0.347656 18.492188 0.25 16.203125 0.25 Z M 13.84375 -5.546875 C 14.820312 -5.546875 15.484375 -5.71875 15.828125 -6.0625 C 16.171875 -6.40625 16.34375 -7.066406 16.34375 -8.046875 L 16.34375 -26.359375 C 16.34375 -27.347656 16.171875 -28.007812 15.828125 -28.34375 C 15.484375 -28.6875 14.820312 -28.859375 13.84375 -28.859375 L 11.984375 -28.859375 C 10.992188 -28.859375 10.328125 -28.6875 9.984375 -28.34375 C 9.640625 -28.007812 9.46875 -27.347656 9.46875 -26.359375 L 9.46875 -8.046875 C 9.46875 -7.066406 9.640625 -6.40625 9.984375 -6.0625 C 10.328125 -5.71875 10.992188 -5.546875 11.984375 -5.546875 Z M 13.84375 -5.546875 "/></g></g></g><g fill="#0d2648" fill-opacity="1"><g transform="translate(579.773671, 647.78686)"><g><path d="M 15.125 -34.359375 C 17.875 -34.359375 19.828125 -33.785156 20.984375 -32.640625 C 22.148438 -31.492188 22.734375 -29.53125 22.734375 -26.75 L 22.734375 -19.890625 C 22.734375 -17.140625 22.148438 -15.179688 20.984375 -14.015625 C 19.828125 -12.847656 17.875 -12.265625 15.125 -12.265625 L 9.71875 -12.265625 L 9.71875 -0.984375 C 9.71875 -0.328125 9.390625 0 8.734375 0 L 3.828125 0 C 3.171875 0 2.84375 -0.328125 2.84375 -0.984375 L 2.84375 -33.390625 C 2.84375 -34.035156 3.171875 -34.359375 3.828125 -34.359375 Z M 15.859375 -26.40625 C 15.859375 -27.289062 15.671875 -27.921875 15.296875 -28.296875 C 14.921875 -28.671875 14.289062 -28.859375 13.40625 -28.859375 L 9.71875 -28.859375 L 9.71875 -17.828125 L 13.40625 -17.828125 C 14.289062 -17.828125 14.921875 -18.015625 15.296875 -18.390625 C 15.671875 -18.765625 15.859375 -19.394531 15.859375 -20.28125 Z M 15.859375 -26.40625 "/></g></g></g><g fill="#0d2648" fill-opacity="1"><g transform="translate(603.827893, 647.78686)"><g><path d="M 9.578125 0.25 C 7.316406 0.25 5.585938 -0.347656 4.390625 -1.546875 C 3.203125 -2.742188 2.609375 -4.488281 2.609375 -6.78125 L 2.609375 -27.640625 C 2.609375 -29.898438 3.203125 -31.625 4.390625 -32.8125 C 5.585938 -34.007812 7.316406 -34.609375 9.578125 -34.609375 L 16.203125 -34.609375 C 18.492188 -34.609375 20.234375 -34.007812 21.421875 -32.8125 C 22.617188 -31.625 23.21875 -29.898438 23.21875 -27.640625 L 23.21875 -6.78125 C 23.21875 -4.488281 22.617188 -2.742188 21.421875 -1.546875 C 20.234375 -0.347656 18.492188 0.25 16.203125 0.25 Z M 13.84375 -5.546875 C 14.820312 -5.546875 15.484375 -5.71875 15.828125 -6.0625 C 16.171875 -6.40625 16.34375 -7.066406 16.34375 -8.046875 L 16.34375 -26.359375 C 16.34375 -27.347656 16.171875 -28.007812 15.828125 -28.34375 C 15.484375 -28.6875 14.820312 -28.859375 13.84375 -28.859375 L 11.984375 -28.859375 C 10.992188 -28.859375 10.328125 -28.6875 9.984375 -28.34375 C 9.640625 -28.007812 9.46875 -27.347656 9.46875 -26.359375 L 9.46875 -8.046875 C 9.46875 -7.066406 9.640625 -6.40625 9.984375 -6.0625 C 10.328125 -5.71875 10.992188 -5.546875 11.984375 -5.546875 Z M 13.84375 -5.546875 "/></g></g></g><g fill="#0d2648" fill-opacity="1"><g transform="translate(629.649414, 647.78686)"><g><path d="M 3.828125 0 C 3.171875 0 2.84375 -0.328125 2.84375 -0.984375 L 2.84375 -33.390625 C 2.84375 -34.035156 3.171875 -34.359375 3.828125 -34.359375 L 8.734375 -34.359375 C 9.390625 -34.359375 9.71875 -34.035156 9.71875 -33.390625 L 9.71875 -6.140625 L 18.796875 -6.140625 C 19.453125 -6.140625 19.78125 -5.8125 19.78125 -5.15625 L 19.78125 -0.984375 C 19.78125 -0.328125 19.453125 0 18.796875 0 Z M 3.828125 0 "/></g></g></g><g fill="#0d2648" fill-opacity="1"><g transform="translate(649.678263, 647.78686)"><g><path d="M 11.4375 -28.96875 L 11.4375 -5.40625 L 13.984375 -5.40625 C 14.640625 -5.40625 14.96875 -5.078125 14.96875 -4.421875 L 14.96875 -0.984375 C 14.96875 -0.328125 14.640625 0 13.984375 0 L 1.96875 0 C 1.3125 0 0.984375 -0.328125 0.984375 -0.984375 L 0.984375 -4.421875 C 0.984375 -5.078125 1.3125 -5.40625 1.96875 -5.40625 L 4.5625 -5.40625 L 4.5625 -28.96875 L 1.96875 -28.96875 C 1.3125 -28.96875 0.984375 -29.296875 0.984375 -29.953125 L 0.984375 -33.390625 C 0.984375 -34.035156 1.3125 -34.359375 1.96875 -34.359375 L 13.984375 -34.359375 C 14.640625 -34.359375 14.96875 -34.035156 14.96875 -33.390625 L 14.96875 -29.953125 C 14.96875 -29.296875 14.640625 -28.96875 13.984375 -28.96875 Z M 11.4375 -28.96875 "/></g></g></g><g fill="#0d2648" fill-opacity="1"><g transform="translate(665.632622, 647.78686)"><g><path d="M 20.125 -34.359375 C 20.78125 -34.359375 21.109375 -34.035156 21.109375 -33.390625 L 21.109375 -29.453125 C 21.109375 -28.796875 20.78125 -28.46875 20.125 -28.46875 L 14.140625 -28.46875 L 14.140625 -0.984375 C 14.140625 -0.328125 13.8125 0 13.15625 0 L 8.25 0 C 7.59375 0 7.265625 -0.328125 7.265625 -0.984375 L 7.265625 -28.46875 L 1.234375 -28.46875 C 0.578125 -28.46875 0.25 -28.796875 0.25 -29.453125 L 0.25 -33.390625 C 0.25 -34.035156 0.578125 -34.359375 1.234375 -34.359375 Z M 20.125 -34.359375 "/></g></g></g><g fill="#0d2648" fill-opacity="1"><g transform="translate(686.986926, 647.78686)"><g><path d="M 21.703125 -1.234375 C 21.734375 -1.128906 21.75 -1.015625 21.75 -0.890625 C 21.75 -0.296875 21.40625 0 20.71875 0 L 16.046875 0 C 15.722656 0 15.476562 -0.0625 15.3125 -0.1875 C 15.15625 -0.320312 15.054688 -0.554688 15.015625 -0.890625 L 14.140625 -6.03125 L 7.703125 -6.03125 L 6.828125 -0.890625 C 6.796875 -0.554688 6.695312 -0.320312 6.53125 -0.1875 C 6.363281 -0.0625 6.117188 0 5.796875 0 L 1.171875 0 C 0.328125 0 -0.015625 -0.410156 0.140625 -1.234375 L 6.53125 -33.53125 C 6.59375 -33.851562 6.695312 -34.070312 6.84375 -34.1875 C 6.988281 -34.300781 7.226562 -34.359375 7.5625 -34.359375 L 14.28125 -34.359375 C 14.613281 -34.359375 14.851562 -34.300781 15 -34.1875 C 15.144531 -34.070312 15.25 -33.851562 15.3125 -33.53125 Z M 11.296875 -26.515625 L 10.5625 -26.515625 L 9.71875 -18.953125 L 8.34375 -11.296875 L 13.453125 -11.296875 L 12.125 -18.953125 Z M 11.296875 -26.515625 "/></g></g></g><g fill="#0d2648" fill-opacity="1"><g transform="translate(708.832118, 647.78686)"><g><path d="M 3.828125 0 C 3.171875 0 2.84375 -0.328125 2.84375 -0.984375 L 2.84375 -33.390625 C 2.84375 -34.035156 3.171875 -34.359375 3.828125 -34.359375 L 9.078125 -34.359375 C 9.410156 -34.359375 9.65625 -34.289062 9.8125 -34.15625 C 9.976562 -34.03125 10.113281 -33.835938 10.21875 -33.578125 L 17.828125 -9.578125 L 18.65625 -9.578125 L 16.34375 -20.28125 L 16.34375 -33.390625 C 16.34375 -34.035156 16.671875 -34.359375 17.328125 -34.359375 L 22 -34.359375 C 22.644531 -34.359375 22.96875 -34.035156 22.96875 -33.390625 L 22.96875 -0.984375 C 22.96875 -0.328125 22.644531 0 22 0 L 16.6875 0 C 16.394531 0 16.164062 -0.0625 16 -0.1875 C 15.84375 -0.320312 15.710938 -0.535156 15.609375 -0.828125 L 8 -24.796875 L 7.125 -24.796875 L 9.46875 -14.09375 L 9.46875 -0.984375 C 9.46875 -0.328125 9.144531 0 8.5 0 Z M 3.828125 0 "/></g></g></g><g fill="#0d2648" fill-opacity="1"><g transform="translate(734.653638, 647.78686)"><g><path d="M 9.578125 0.25 C 7.316406 0.25 5.585938 -0.347656 4.390625 -1.546875 C 3.203125 -2.742188 2.609375 -4.488281 2.609375 -6.78125 L 2.609375 -27.640625 C 2.609375 -29.898438 3.203125 -31.625 4.390625 -32.8125 C 5.585938 -34.007812 7.316406 -34.609375 9.578125 -34.609375 L 16.203125 -34.609375 C 18.492188 -34.609375 20.234375 -34.007812 21.421875 -32.8125 C 22.617188 -31.625 23.21875 -29.898438 23.21875 -27.640625 L 23.21875 -6.78125 C 23.21875 -4.488281 22.617188 -2.742188 21.421875 -1.546875 C 20.234375 -0.347656 18.492188 0.25 16.203125 0.25 Z M 13.84375 -5.546875 C 14.820312 -5.546875 15.484375 -5.71875 15.828125 -6.0625 C 16.171875 -6.40625 16.34375 -7.066406 16.34375 -8.046875 L 16.34375 -26.359375 C 16.34375 -27.347656 16.171875 -28.007812 15.828125 -28.34375 C 15.484375 -28.6875 14.820312 -28.859375 13.84375 -28.859375 L 11.984375 -28.859375 C 10.992188 -28.859375 10.328125 -28.6875 9.984375 -28.34375 C 9.640625 -28.007812 9.46875 -27.347656 9.46875 -26.359375 L 9.46875 -8.046875 C 9.46875 -7.066406 9.640625 -6.40625 9.984375 -6.0625 C 10.328125 -5.71875 10.992188 -5.546875 11.984375 -5.546875 Z M 13.84375 -5.546875 "/></g></g></g><g clip-path="url(#ba9c507f54)"><g clip-path="url(#dde357b723)"><g clip-path="url(#bbe27e232e)"><path fill="#5dae4b" d="M 153.464844 282.644531 L 256.789062 282.25 C 258.949219 282.242188 260.710938 283.988281 260.71875 286.152344 C 260.726562 288.316406 258.980469 290.074219 256.816406 290.082031 L 153.492188 290.476562 C 151.332031 290.484375 149.570312 288.738281 149.5625 286.574219 C 149.554688 284.410156 151.300781 282.652344 153.464844 282.644531 Z M 153.464844 282.644531 " fill-opacity="1" fill-rule="nonzero"/></g></g></g><g clip-path="url(#fcf8376173)"><g clip-path="url(#80e347077f)"><g clip-path="url(#2eff5cfb8c)"><path fill="#5dae4b" d="M 129.859375 282.667969 L 137.410156 282.535156 C 139.636719 282.496094 141.472656 284.269531 141.515625 286.496094 C 141.554688 288.722656 139.78125 290.558594 137.554688 290.597656 L 130 290.734375 C 127.773438 290.773438 125.9375 289 125.898438 286.773438 C 125.859375 284.546875 127.632812 282.707031 129.859375 282.667969 Z M 129.859375 282.667969 " fill-opacity="1" fill-rule="nonzero"/></g></g></g><g clip-path="url(#f7aa724dcc)"><g clip-path="url(#a5f6237604)"><g clip-path="url(#abac3c0db8)"><path fill="#f8bd00" d="M 98.429688 258.960938 L 170.226562 258.6875 C 172.386719 258.679688 174.148438 260.429688 174.15625 262.589844 C 174.164062 264.753906 172.417969 266.511719 170.253906 266.523438 L 98.457031 266.792969 C 96.296875 266.800781 94.535156 265.054688 94.527344 262.890625 C 94.519531 260.730469 96.265625 258.96875 98.429688 258.960938 Z M 98.429688 258.960938 " fill-opacity="1" fill-rule="nonzero"/></g></g></g><g clip-path="url(#fd5e7888bf)"><g clip-path="url(#cfd501e24a)"><g clip-path="url(#2685d88f8e)"><path fill="#d0080f" d="M 185.566406 258.6875 L 202.085938 258.511719 C 204.25 258.492188 206.019531 260.226562 206.042969 262.386719 C 206.066406 264.550781 204.332031 266.324219 202.167969 266.34375 L 185.648438 266.519531 C 183.484375 266.542969 181.714844 264.804688 181.691406 262.644531 C 181.667969 260.480469 183.402344 258.710938 185.566406 258.6875 Z M 185.566406 258.6875 " fill-opacity="1" fill-rule="nonzero"/></g></g></g><g clip-path="url(#5661c2c907)"><g clip-path="url(#ccf74343c4)"><g clip-path="url(#4b661598da)"><path fill="#d0080f" d="M 217.105469 258.511719 L 299.898438 258.199219 C 302.0625 258.191406 303.820312 259.9375 303.832031 262.097656 C 303.839844 264.261719 302.089844 266.023438 299.929688 266.03125 L 217.136719 266.34375 C 214.972656 266.351562 213.214844 264.605469 213.207031 262.441406 C 213.195312 260.28125 214.945312 258.519531 217.105469 258.511719 Z M 217.105469 258.511719 " fill-opacity="1" fill-rule="nonzero"/></g></g></g><g clip-path="url(#26aca3ebff)"><g clip-path="url(#14defc848d)"><g clip-path="url(#33b7cfd0ce)"><path fill="#f8bd00" d="M 76.085938 259.046875 L 83.042969 259.019531 C 85.207031 259.011719 86.96875 260.757812 86.976562 262.921875 C 86.984375 265.082031 85.238281 266.84375 83.074219 266.851562 L 76.113281 266.878906 C 73.953125 266.886719 72.191406 265.140625 72.183594 262.976562 C 72.175781 260.8125 73.921875 259.054688 76.085938 259.046875 Z M 76.085938 259.046875 " fill-opacity="1" fill-rule="nonzero"/></g></g></g><g clip-path="url(#2a7a7561e9)"><g clip-path="url(#88e1644b10)"><g clip-path="url(#748fe81886)"><path fill="#0d2648" d="M 93.226562 239.042969 L 236.839844 238.5 C 239.003906 238.492188 240.761719 240.238281 240.769531 242.398438 C 240.777344 244.5625 239.03125 246.324219 236.871094 246.332031 L 93.253906 246.875 C 91.09375 246.882812 89.332031 245.136719 89.324219 242.972656 C 89.316406 240.8125 91.0625 239.050781 93.226562 239.042969 Z M 93.226562 239.042969 " fill-opacity="1" fill-rule="nonzero"/></g></g></g><g clip-path="url(#9418cecb3b)"><g clip-path="url(#14dae289f2)"><g clip-path="url(#f0c0dd6521)"><path fill="#5dae4b" d="M 391.636719 282.644531 L 494.960938 282.25 C 497.125 282.242188 498.882812 283.988281 498.890625 286.152344 C 498.898438 288.316406 497.152344 290.074219 494.992188 290.082031 L 391.664062 290.476562 C 389.503906 290.484375 387.742188 288.738281 387.734375 286.574219 C 387.726562 284.410156 389.472656 282.652344 391.636719 282.644531 Z M 391.636719 282.644531 " fill-opacity="1" fill-rule="nonzero"/></g></g></g><g clip-path="url(#0817bf489b)"><g clip-path="url(#b8aebe6ebe)"><g clip-path="url(#20e50397eb)"><path fill="#5dae4b" d="M 368.03125 282.667969 L 375.582031 282.535156 C 377.808594 282.496094 379.648438 284.269531 379.6875 286.496094 C 379.726562 288.722656 377.953125 290.558594 375.726562 290.597656 L 368.175781 290.734375 C 365.949219 290.773438 364.109375 289 364.070312 286.773438 C 364.03125 284.546875 365.804688 282.707031 368.03125 282.667969 Z M 368.03125 282.667969 " fill-opacity="1" fill-rule="nonzero"/></g></g></g><g clip-path="url(#be690819df)"><g clip-path="url(#51e83c1e83)"><g clip-path="url(#7f70b80428)"><path fill="#d0080f" d="M 336.601562 258.960938 L 408.398438 258.6875 C 410.5625 258.679688 412.320312 260.429688 412.328125 262.589844 C 412.335938 264.753906 410.589844 266.511719 408.429688 266.523438 L 336.632812 266.792969 C 334.46875 266.800781 332.707031 265.054688 332.699219 262.890625 C 332.691406 260.730469 334.4375 258.96875 336.601562 258.960938 Z M 336.601562 258.960938 " fill-opacity="1" fill-rule="nonzero"/></g></g></g><g clip-path="url(#02722a9df4)"><g clip-path="url(#22252bac35)"><g clip-path="url(#0e0ea8473b)"><path fill="#f8bd00" d="M 423.738281 258.6875 L 440.257812 258.511719 C 442.421875 258.492188 444.191406 260.226562 444.214844 262.386719 C 444.238281 264.550781 442.503906 266.324219 440.339844 266.34375 L 423.820312 266.519531 C 421.660156 266.542969 419.886719 264.804688 419.863281 262.644531 C 419.84375 260.480469 421.578125 258.710938 423.738281 258.6875 Z M 423.738281 258.6875 " fill-opacity="1" fill-rule="nonzero"/></g></g></g><g clip-path="url(#79a586811a)"><g clip-path="url(#cf70983f20)"><g clip-path="url(#3ad40bb85b)"><path fill="#f8bd00" d="M 455.28125 258.511719 L 538.070312 258.199219 C 540.234375 258.191406 541.996094 259.9375 542.003906 262.097656 C 542.011719 264.261719 540.265625 266.023438 538.101562 266.03125 L 455.308594 266.34375 C 453.144531 266.351562 451.386719 264.605469 451.378906 262.441406 C 451.371094 260.28125 453.117188 258.519531 455.28125 258.511719 Z M 455.28125 258.511719 " fill-opacity="1" fill-rule="nonzero"/></g></g></g><g clip-path="url(#afb97b4610)"><g clip-path="url(#8986df9f42)"><g clip-path="url(#abd6444e3a)"><path fill="#d0080f" d="M 314.257812 259.046875 L 321.21875 259.019531 C 323.378906 259.011719 325.140625 260.757812 325.148438 262.921875 C 325.15625 265.082031 323.410156 266.84375 321.246094 266.851562 L 314.289062 266.878906 C 312.125 266.886719 310.363281 265.140625 310.355469 262.976562 C 310.347656 260.8125 312.09375 259.054688 314.257812 259.046875 Z M 314.257812 259.046875 " fill-opacity="1" fill-rule="nonzero"/></g></g></g><g clip-path="url(#772f15b9bb)"><g clip-path="url(#184b8e410c)"><g clip-path="url(#dbb78faa07)"><path fill="#0d2648" d="M 331.398438 239.042969 L 475.011719 238.5 C 477.175781 238.492188 478.9375 240.238281 478.945312 242.398438 C 478.953125 244.5625 477.207031 246.324219 475.042969 246.332031 L 331.425781 246.875 C 329.265625 246.882812 327.503906 245.136719 327.496094 242.972656 C 327.488281 240.8125 329.234375 239.050781 331.398438 239.042969 Z M 331.398438 239.042969 " fill-opacity="1" fill-rule="nonzero"/></g></g></g><g clip-path="url(#3ba2db2839)"><g clip-path="url(#c25475b8fb)"><g clip-path="url(#10292c29bc)"><path fill="#5dae4b" d="M 656.871094 242.890625 L 553.550781 241.75 C 551.390625 241.722656 549.65625 239.953125 549.679688 237.789062 C 549.703125 235.625 551.476562 233.894531 553.640625 233.917969 L 656.957031 235.058594 C 659.121094 235.082031 660.855469 236.855469 660.832031 239.019531 C 660.804688 241.179688 659.035156 242.914062 656.871094 242.890625 Z M 656.871094 242.890625 " fill-opacity="1" fill-rule="nonzero"/></g></g></g><g clip-path="url(#bc795bac23)"><g clip-path="url(#ad3b571d7d)"><g clip-path="url(#ce367d2783)"><path fill="#5dae4b" d="M 680.472656 243.214844 L 672.921875 243.238281 C 670.691406 243.242188 668.882812 241.445312 668.875 239.214844 C 668.871094 236.988281 670.671875 235.179688 672.898438 235.171875 L 680.449219 235.152344 C 682.675781 235.144531 684.488281 236.945312 684.496094 239.171875 C 684.5 241.398438 682.699219 243.210938 680.472656 243.214844 Z M 680.472656 243.214844 " fill-opacity="1" fill-rule="nonzero"/></g></g></g><g clip-path="url(#20ee75fc40)"><g clip-path="url(#48027a78d7)"><g clip-path="url(#13f7a9a097)"><path fill="#d0080f" d="M 711.546875 267.386719 L 639.753906 266.59375 C 637.59375 266.570312 635.859375 264.796875 635.882812 262.632812 C 635.90625 260.472656 637.679688 258.738281 639.839844 258.761719 L 711.632812 259.554688 C 713.796875 259.578125 715.53125 261.351562 715.507812 263.515625 C 715.484375 265.675781 713.710938 267.410156 711.546875 267.386719 Z M 711.546875 267.386719 " fill-opacity="1" fill-rule="nonzero"/></g></g></g><g clip-path="url(#dd86d4089a)"><g clip-path="url(#c778a0af3c)"><g clip-path="url(#bb37896177)"><path fill="#f8bd00" d="M 624.414062 266.367188 L 607.894531 266.296875 C 605.734375 266.285156 603.988281 264.527344 603.996094 262.363281 C 604.007812 260.199219 605.765625 258.453125 607.929688 258.464844 L 624.449219 258.535156 C 626.613281 258.546875 628.359375 260.304688 628.347656 262.46875 C 628.339844 264.632812 626.578125 266.378906 624.414062 266.367188 Z M 624.414062 266.367188 " fill-opacity="1" fill-rule="nonzero"/></g></g></g><g clip-path="url(#488beef8e9)"><g clip-path="url(#0274015e15)"><g clip-path="url(#5d68db4a09)"><path fill="#f8bd00" d="M 592.875 266.074219 L 510.085938 265.160156 C 507.925781 265.132812 506.191406 263.363281 506.214844 261.199219 C 506.238281 259.035156 508.011719 257.300781 510.175781 257.328125 L 592.964844 258.242188 C 595.125 258.265625 596.859375 260.039062 596.835938 262.203125 C 596.8125 264.363281 595.039062 266.097656 592.875 266.074219 Z M 592.875 266.074219 " fill-opacity="1" fill-rule="nonzero"/></g></g></g><g clip-path="url(#e6e69ade89)"><g clip-path="url(#1cf7c65d59)"><g clip-path="url(#0e5920bf38)"><path fill="#d0080f" d="M 733.890625 267.636719 L 726.929688 267.558594 C 724.769531 267.535156 723.035156 265.761719 723.058594 263.597656 C 723.082031 261.4375 724.855469 259.703125 727.015625 259.726562 L 733.976562 259.804688 C 736.140625 259.828125 737.875 261.597656 737.847656 263.761719 C 737.824219 265.925781 736.050781 267.660156 733.890625 267.636719 Z M 733.890625 267.636719 " fill-opacity="1" fill-rule="nonzero"/></g></g></g><g clip-path="url(#1ed0b72810)"><g clip-path="url(#c5a54d36bc)"><g clip-path="url(#ea38097293)"><path fill="#0d2648" d="M 716.453125 287.382812 L 572.847656 285.792969 C 570.683594 285.769531 568.949219 283.996094 568.976562 281.832031 C 569 279.671875 570.773438 277.9375 572.933594 277.960938 L 716.542969 279.550781 C 718.703125 279.574219 720.4375 281.347656 720.414062 283.507812 C 720.390625 285.671875 718.617188 287.40625 716.453125 287.382812 Z M 716.453125 287.382812 " fill-opacity="1" fill-rule="nonzero"/></g></g></g></svg>