<svg xmlns="http://www.w3.org/2000/svg" xmlns:xlink="http://www.w3.org/1999/xlink" width="1753" zoomAndPan="magnify" viewBox="0 0 1314.75 546.000001" height="728" preserveAspectRatio="xMidYMid meet" version="1.0"><defs><g/><clipPath id="d21ca57e0e"><path d="M 632.140625 346.367188 L 800.832031 346.367188 L 800.832031 426 L 632.140625 426 Z M 632.140625 346.367188 " clip-rule="nonzero"/></clipPath><clipPath id="b6359f2e87"><path d="M 768.441406 386.394531 C 761.730469 380.023438 754.425781 372.714844 747.023438 366.046875 C 742.65625 362.457031 737.613281 360.210938 733.574219 357.1875 C 709.800781 346.675781 679.722656 333.960938 634.699219 373.074219 C 633.398438 374.511719 632.515625 375.695312 632.160156 376.558594 C 632.160156 376.558594 664.351562 348.921875 700.4375 386.5 C 708.015625 394.3125 729.425781 414.0625 735.453125 419.363281 C 741.480469 424.667969 750.960938 427.933594 763.707031 423.910156 C 774.644531 419.648438 787.960938 411.164062 800.433594 399.132812 C 792.265625 400.035156 778.847656 396.265625 768.453125 386.394531 " clip-rule="nonzero"/></clipPath><clipPath id="91939542c4"><path d="M 543.082031 298.171875 L 748.445312 298.171875 L 748.445312 433.332031 L 543.082031 433.332031 Z M 543.082031 298.171875 " clip-rule="nonzero"/></clipPath><clipPath id="c4708cd035"><path d="M 704.992188 324.167969 C 694.820312 313.855469 687.542969 303.597656 675.585938 300.132812 C 665.863281 296.878906 654.363281 298.875 641.765625 309.539062 C 592.3125 349.25 556.238281 384.484375 556.238281 384.484375 C 556.238281 384.484375 535.007812 403.144531 548.226562 414.28125 C 571.125 435.835938 595.097656 433.222656 595.097656 433.222656 C 595.097656 433.222656 579.628906 417.90625 598.867188 403.238281 C 620.789062 385.914062 642.5625 367.339844 660.371094 356.757812 C 700.613281 330.066406 745.457031 365.0625 748.429688 367.433594 C 748.429688 367.433594 711 330.558594 704.992188 324.167969 " clip-rule="nonzero"/></clipPath><clipPath id="77608ec192"><path d="M 741.109375 141.007812 L 820.742188 141.007812 L 820.742188 309.695312 L 741.109375 309.695312 Z M 741.109375 141.007812 " clip-rule="nonzero"/></clipPath><clipPath id="3265aab11b"><path d="M 818.671875 177.761719 C 814.386719 166.832031 805.882812 153.53125 793.828125 141.078125 C 794.742188 149.246094 791.003906 162.664062 781.144531 173.078125 C 774.78125 179.800781 767.496094 187.117188 760.828125 194.53125 C 757.25 198.910156 755 203.949219 751.988281 208 C 741.519531 231.78125 728.847656 261.894531 768.03125 306.851562 C 769.46875 308.144531 770.667969 309.035156 771.527344 309.394531 C 771.527344 309.394531 743.839844 277.253906 781.367188 241.105469 C 789.167969 233.515625 808.882812 212.0625 814.164062 206.039062 C 819.445312 200.011719 822.703125 190.519531 818.671875 177.785156 " clip-rule="nonzero"/></clipPath><clipPath id="54c0b30977"><path d="M 693 193 L 829 193 L 829 397.710938 L 693 397.710938 Z M 693 193 " clip-rule="nonzero"/></clipPath><clipPath id="fd57125a8a"><path d="M 828.257812 346.332031 C 828.257812 346.332031 812.957031 361.828125 798.269531 342.613281 C 780.914062 320.722656 762.296875 298.976562 751.683594 281.191406 C 724.921875 240.988281 759.851562 196.085938 762.214844 193.113281 C 762.214844 193.113281 725.394531 230.597656 719.011719 236.621094 C 708.710938 246.816406 698.472656 254.105469 695.027344 266.0625 C 691.785156 275.796875 693.800781 287.28125 704.488281 299.871094 C 744.28125 349.261719 779.570312 385.273438 779.570312 385.273438 C 779.570312 385.273438 798.257812 406.472656 809.386719 393.230469 C 830.914062 370.300781 828.257812 346.332031 828.257812 346.332031 " clip-rule="nonzero"/></clipPath><clipPath id="ee9a527165"><path d="M 535 119.003906 L 704 119.003906 L 704 199 L 535 199 Z M 535 119.003906 " clip-rule="nonzero"/></clipPath><clipPath id="bf93759b5e"><path d="M 635.121094 158.84375 C 627.519531 151.050781 606.035156 131.367188 600 126.09375 C 593.960938 120.824219 584.46875 117.582031 571.734375 121.632812 C 560.816406 125.925781 547.523438 134.464844 535.09375 146.527344 C 543.261719 145.601562 556.679688 149.320312 567.105469 159.15625 C 573.835938 165.511719 581.164062 172.785156 588.585938 179.441406 C 592.964844 183.023438 598.015625 185.25 602.066406 188.261719 C 625.871094 198.6875 655.992188 211.320312 700.886719 172.0625 C 702.179688 170.625 703.0625 169.425781 703.417969 168.566406 C 703.417969 168.566406 671.320312 196.292969 635.109375 158.832031 " clip-rule="nonzero"/></clipPath><clipPath id="5fa636aae2"><path d="M 587.085938 111.667969 L 792 111.667969 L 792 246.832031 L 587.085938 246.832031 Z M 587.085938 111.667969 " clip-rule="nonzero"/></clipPath><clipPath id="de6d737342"><path d="M 787.222656 130.578125 C 764.261719 109.097656 740.300781 111.785156 740.300781 111.785156 C 740.300781 111.785156 755.820312 127.050781 736.628906 141.78125 C 714.757812 159.167969 693.042969 177.816406 675.269531 188.460938 C 635.109375 215.277344 590.152344 180.417969 587.167969 178.058594 C 587.167969 178.058594 624.714844 214.816406 630.742188 221.1875 C 640.945312 231.46875 648.253906 241.695312 660.222656 245.125 C 669.957031 248.351562 681.441406 246.324219 694.011719 235.613281 C 743.335938 195.75 779.296875 160.398438 779.296875 160.398438 C 779.296875 160.398438 800.472656 141.6875 787.222656 130.578125 " clip-rule="nonzero"/></clipPath><clipPath id="d4e5c10e29"><path d="M 515 236.351562 L 595 236.351562 L 595 406 L 515 406 Z M 515 236.351562 " clip-rule="nonzero"/></clipPath><clipPath id="2c3ecd5b87"><path d="M 567.820312 239.457031 C 566.378906 238.164062 565.183594 237.285156 564.324219 236.917969 C 564.324219 236.917969 592.03125 269.042969 554.535156 305.214844 C 546.734375 312.804688 527.039062 334.265625 521.757812 340.304688 C 516.476562 346.339844 513.230469 355.832031 517.273438 368.566406 C 521.558594 379.496094 530.082031 392.789062 542.136719 405.242188 C 541.222656 397.074219 544.949219 383.65625 554.800781 373.242188 C 561.160156 366.511719 568.449219 359.191406 575.09375 351.78125 C 578.675781 347.402344 580.910156 342.363281 583.925781 338.308594 C 594.371094 314.515625 607.035156 284.40625 567.820312 239.46875 " clip-rule="nonzero"/></clipPath><clipPath id="f133a84464"><path d="M 507.457031 148.339844 L 642.621094 148.339844 L 642.621094 353.703125 L 507.457031 353.703125 Z M 507.457031 148.339844 " clip-rule="nonzero"/></clipPath><clipPath id="fe41009663"><path d="M 631.371094 246.386719 C 591.535156 197.027344 556.226562 161.027344 556.226562 161.027344 C 556.226562 161.027344 537.515625 139.847656 526.410156 153.089844 C 504.90625 176.03125 507.574219 200 507.574219 200 C 507.574219 200 522.859375 184.492188 537.558594 203.707031 C 554.925781 225.585938 573.550781 247.320312 584.1875 265.105469 C 610.972656 305.300781 576.070312 350.214844 573.707031 353.195312 C 573.707031 353.195312 610.5 315.683594 616.882812 309.65625 C 627.171875 299.460938 637.410156 292.164062 640.851562 280.195312 C 644.085938 270.460938 642.070312 258.976562 631.371094 246.398438 " clip-rule="nonzero"/></clipPath></defs><g clip-path="url(#d21ca57e0e)"><g clip-path="url(#b6359f2e87)"><path fill="#005c2c" d="M 502.21875 106.429688 L 833.3125 106.429688 L 833.3125 438.574219 L 502.21875 438.574219 Z M 502.21875 106.429688 " fill-opacity="1" fill-rule="nonzero"/></g></g><g clip-path="url(#91939542c4)"><g clip-path="url(#c4708cd035)"><path fill="#5dae4b" d="M 502.21875 106.429688 L 833.3125 106.429688 L 833.3125 438.574219 L 502.21875 438.574219 Z M 502.21875 106.429688 " fill-opacity="1" fill-rule="nonzero"/></g></g><g clip-path="url(#77608ec192)"><g clip-path="url(#3265aab11b)"><path fill="#d0080f" d="M 502.21875 106.429688 L 833.3125 106.429688 L 833.3125 438.574219 L 502.21875 438.574219 Z M 502.21875 106.429688 " fill-opacity="1" fill-rule="nonzero"/></g></g><g clip-path="url(#54c0b30977)"><g clip-path="url(#fd57125a8a)"><path fill="#e44636" d="M 502.21875 106.429688 L 833.3125 106.429688 L 833.3125 438.574219 L 502.21875 438.574219 Z M 502.21875 106.429688 " fill-opacity="1" fill-rule="nonzero"/></g></g><g clip-path="url(#ee9a527165)"><g clip-path="url(#bf93759b5e)"><path fill="#f8bd00" d="M 502.21875 106.429688 L 833.3125 106.429688 L 833.3125 438.574219 L 502.21875 438.574219 Z M 502.21875 106.429688 " fill-opacity="1" fill-rule="nonzero"/></g></g><g clip-path="url(#5fa636aae2)"><g clip-path="url(#de6d737342)"><path fill="#ffe100" d="M 502.21875 106.429688 L 833.3125 106.429688 L 833.3125 438.574219 L 502.21875 438.574219 Z M 502.21875 106.429688 " fill-opacity="1" fill-rule="nonzero"/></g></g><g clip-path="url(#d4e5c10e29)"><g clip-path="url(#2c3ecd5b87)"><path fill="#0d2648" d="M 502.21875 106.429688 L 833.3125 106.429688 L 833.3125 438.574219 L 502.21875 438.574219 Z M 502.21875 106.429688 " fill-opacity="1" fill-rule="nonzero"/></g></g><g clip-path="url(#f133a84464)"><g clip-path="url(#fe41009663)"><path fill="#004682" d="M 502.21875 106.429688 L 833.3125 106.429688 L 833.3125 438.574219 L 502.21875 438.574219 Z M 502.21875 106.429688 " fill-opacity="1" fill-rule="nonzero"/></g></g><g fill="#112855" fill-opacity="1"><g transform="translate(24.366479, 303.647409)"><g><path d="M 45.46875 -50.515625 L 81.15625 -50.515625 L 81.15625 -3.875 C 75.363281 -1.988281 69.914062 -0.664062 64.8125 0.09375 C 59.707031 0.851562 54.488281 1.234375 49.15625 1.234375 C 35.582031 1.234375 25.21875 -2.753906 18.0625 -10.734375 C 10.90625 -18.710938 7.328125 -30.164062 7.328125 -45.09375 C 7.328125 -59.613281 11.476562 -70.929688 19.78125 -79.046875 C 28.082031 -87.171875 39.597656 -91.234375 54.328125 -91.234375 C 63.554688 -91.234375 72.457031 -89.390625 81.03125 -85.703125 L 74.6875 -70.4375 C 68.125 -73.71875 61.296875 -75.359375 54.203125 -75.359375 C 45.960938 -75.359375 39.359375 -72.585938 34.390625 -67.046875 C 29.429688 -61.515625 26.953125 -54.078125 26.953125 -44.734375 C 26.953125 -34.960938 28.945312 -27.503906 32.9375 -22.359375 C 36.9375 -17.210938 42.753906 -14.640625 50.390625 -14.640625 C 54.367188 -14.640625 58.410156 -15.050781 62.515625 -15.875 L 62.515625 -34.640625 L 45.46875 -34.640625 Z M 45.46875 -50.515625 "/></g></g></g><g fill="#112855" fill-opacity="1"><g transform="translate(113.710591, 303.647409)"><g><path d="M 30.390625 -50.015625 L 36.546875 -50.015625 C 42.578125 -50.015625 47.023438 -51.019531 49.890625 -53.03125 C 52.765625 -55.039062 54.203125 -58.203125 54.203125 -62.515625 C 54.203125 -66.773438 52.734375 -69.804688 49.796875 -71.609375 C 46.867188 -73.421875 42.328125 -74.328125 36.171875 -74.328125 L 30.390625 -74.328125 Z M 30.390625 -34.515625 L 30.390625 0 L 11.328125 0 L 11.328125 -89.953125 L 37.53125 -89.953125 C 49.75 -89.953125 58.789062 -87.722656 64.65625 -83.265625 C 70.519531 -78.816406 73.453125 -72.0625 73.453125 -63 C 73.453125 -57.707031 71.992188 -53 69.078125 -48.875 C 66.171875 -44.757812 62.050781 -41.53125 56.71875 -39.1875 C 70.257812 -18.96875 79.082031 -5.90625 83.1875 0 L 62.015625 0 L 40.546875 -34.515625 Z M 30.390625 -34.515625 "/></g></g></g><g fill="#112855" fill-opacity="1"><g transform="translate(194.995597, 303.647409)"><g><path d="M 66.390625 0 L 59.859375 -21.40625 L 27.078125 -21.40625 L 20.546875 0 L 0 0 L 31.75 -90.3125 L 55.0625 -90.3125 L 86.9375 0 Z M 55.3125 -37.40625 C 49.28125 -56.800781 45.882812 -67.769531 45.125 -70.3125 C 44.363281 -72.863281 43.820312 -74.875 43.5 -76.34375 C 42.144531 -71.09375 38.269531 -58.113281 31.875 -37.40625 Z M 55.3125 -37.40625 "/></g></g></g><g fill="#112855" fill-opacity="1"><g transform="translate(280.033312, 303.647409)"><g><path d="M 91.109375 0 L 66.875 0 L 27.75 -68.046875 L 27.1875 -68.046875 C 27.96875 -56.023438 28.359375 -47.453125 28.359375 -42.328125 L 28.359375 0 L 11.328125 0 L 11.328125 -89.953125 L 35.375 -89.953125 L 74.4375 -22.578125 L 74.875 -22.578125 C 74.257812 -34.265625 73.953125 -42.53125 73.953125 -47.375 L 73.953125 -89.953125 L 91.109375 -89.953125 Z M 91.109375 0 "/></g></g></g><g fill="#112855" fill-opacity="1"><g transform="translate(380.574051, 303.647409)"><g><path d="M 85.953125 -45.828125 C 85.953125 -31.023438 81.734375 -19.6875 73.296875 -11.8125 C 64.867188 -3.9375 52.703125 0 36.796875 0 L 11.328125 0 L 11.328125 -89.953125 L 39.5625 -89.953125 C 54.238281 -89.953125 65.640625 -86.070312 73.765625 -78.3125 C 81.890625 -70.5625 85.953125 -59.734375 85.953125 -45.828125 Z M 66.140625 -45.34375 C 66.140625 -64.664062 57.609375 -74.328125 40.546875 -74.328125 L 30.390625 -74.328125 L 30.390625 -15.75 L 38.578125 -15.75 C 56.953125 -15.75 66.140625 -25.613281 66.140625 -45.34375 Z M 66.140625 -45.34375 "/></g></g></g><g fill="#112855" fill-opacity="1"><g transform="translate(471.948327, 303.647409)"><g><path d="M 63.125 0 L 11.328125 0 L 11.328125 -89.953125 L 63.125 -89.953125 L 63.125 -74.328125 L 30.390625 -74.328125 L 30.390625 -54.578125 L 60.84375 -54.578125 L 60.84375 -38.9375 L 30.390625 -38.9375 L 30.390625 -15.75 L 63.125 -15.75 Z M 63.125 0 "/></g></g></g><g fill="#112855" fill-opacity="1"><g transform="translate(825.112554, 303.017445)"><g><path d="M 30.390625 -50.015625 L 36.546875 -50.015625 C 42.578125 -50.015625 47.023438 -51.019531 49.890625 -53.03125 C 52.765625 -55.039062 54.203125 -58.203125 54.203125 -62.515625 C 54.203125 -66.773438 52.734375 -69.804688 49.796875 -71.609375 C 46.867188 -73.421875 42.328125 -74.328125 36.171875 -74.328125 L 30.390625 -74.328125 Z M 30.390625 -34.515625 L 30.390625 0 L 11.328125 0 L 11.328125 -89.953125 L 37.53125 -89.953125 C 49.75 -89.953125 58.789062 -87.722656 64.65625 -83.265625 C 70.519531 -78.816406 73.453125 -72.0625 73.453125 -63 C 73.453125 -57.707031 71.992188 -53 69.078125 -48.875 C 66.171875 -44.757812 62.050781 -41.53125 56.71875 -39.1875 C 70.257812 -18.96875 79.082031 -5.90625 83.1875 0 L 62.015625 0 L 40.546875 -34.515625 Z M 30.390625 -34.515625 "/></g></g></g><g fill="#112855" fill-opacity="1"><g transform="translate(906.39756, 303.017445)"><g><path d="M 63.125 0 L 11.328125 0 L 11.328125 -89.953125 L 63.125 -89.953125 L 63.125 -74.328125 L 30.390625 -74.328125 L 30.390625 -54.578125 L 60.84375 -54.578125 L 60.84375 -38.9375 L 30.390625 -38.9375 L 30.390625 -15.75 L 63.125 -15.75 Z M 63.125 0 "/></g></g></g><g fill="#112855" fill-opacity="1"><g transform="translate(975.070988, 303.017445)"><g><path d="M 49.53125 -75.359375 C 42.351562 -75.359375 36.796875 -72.660156 32.859375 -67.265625 C 28.921875 -61.878906 26.953125 -54.367188 26.953125 -44.734375 C 26.953125 -24.671875 34.476562 -14.640625 49.53125 -14.640625 C 55.84375 -14.640625 63.488281 -16.21875 72.46875 -19.375 L 72.46875 -3.390625 C 65.09375 -0.304688 56.851562 1.234375 47.75 1.234375 C 34.65625 1.234375 24.644531 -2.734375 17.71875 -10.671875 C 10.789062 -18.609375 7.328125 -30 7.328125 -44.84375 C 7.328125 -54.195312 9.023438 -62.390625 12.421875 -69.421875 C 15.828125 -76.460938 20.71875 -81.859375 27.09375 -85.609375 C 33.476562 -89.359375 40.957031 -91.234375 49.53125 -91.234375 C 58.257812 -91.234375 67.035156 -89.125 75.859375 -84.90625 L 69.703125 -69.40625 C 66.335938 -71 62.953125 -72.390625 59.546875 -73.578125 C 56.148438 -74.765625 52.8125 -75.359375 49.53125 -75.359375 Z M 49.53125 -75.359375 "/></g></g></g><g fill="#112855" fill-opacity="1"><g transform="translate(1053.464553, 303.017445)"><g><path d="M 11.328125 0 L 11.328125 -89.953125 L 30.390625 -89.953125 L 30.390625 0 Z M 11.328125 0 "/></g></g></g><g fill="#112855" fill-opacity="1"><g transform="translate(1093.285156, 303.017445)"><g><path d="M 30.078125 0 L 11.328125 0 L 11.328125 -89.953125 L 62.875 -89.953125 L 62.875 -74.328125 L 30.078125 -74.328125 L 30.078125 -51.125 L 60.59375 -51.125 L 60.59375 -35.5625 L 30.078125 -35.5625 Z M 30.078125 0 "/></g></g></g><g fill="#112855" fill-opacity="1"><g transform="translate(1160.543632, 303.017445)"><g><path d="M 63.125 0 L 11.328125 0 L 11.328125 -89.953125 L 63.125 -89.953125 L 63.125 -74.328125 L 30.390625 -74.328125 L 30.390625 -54.578125 L 60.84375 -54.578125 L 60.84375 -38.9375 L 30.390625 -38.9375 L 30.390625 -15.75 L 63.125 -15.75 Z M 63.125 0 "/></g></g></g><g fill="#112855" fill-opacity="1"><g transform="translate(833.398728, 341.044686)"><g><path d="M 10.109375 0.359375 C 7.460938 0.359375 5.40625 -0.539062 3.9375 -2.34375 C 2.46875 -4.144531 1.734375 -6.796875 1.734375 -10.296875 C 1.734375 -13.796875 2.46875 -16.484375 3.9375 -18.359375 C 5.40625 -20.234375 7.460938 -21.171875 10.109375 -21.171875 C 11.859375 -21.171875 13.320312 -20.773438 14.5 -19.984375 C 15.6875 -19.191406 16.609375 -18.066406 17.265625 -16.609375 L 15.234375 -15.390625 C 14.816406 -16.460938 14.179688 -17.320312 13.328125 -17.96875 C 12.472656 -18.613281 11.398438 -18.9375 10.109375 -18.9375 C 9.210938 -18.9375 8.410156 -18.765625 7.703125 -18.421875 C 7.003906 -18.085938 6.410156 -17.609375 5.921875 -16.984375 C 5.429688 -16.359375 5.054688 -15.613281 4.796875 -14.75 C 4.546875 -13.882812 4.421875 -12.914062 4.421875 -11.84375 L 4.421875 -8.734375 C 4.421875 -6.585938 4.914062 -4.90625 5.90625 -3.6875 C 6.894531 -2.476562 8.296875 -1.875 10.109375 -1.875 C 11.441406 -1.875 12.554688 -2.21875 13.453125 -2.90625 C 14.347656 -3.59375 15.003906 -4.503906 15.421875 -5.640625 L 17.421875 -4.390625 C 16.765625 -2.910156 15.816406 -1.75 14.578125 -0.90625 C 13.347656 -0.0625 11.859375 0.359375 10.109375 0.359375 Z M 10.109375 0.359375 "/></g></g></g><g fill="#112855" fill-opacity="1"><g transform="translate(851.472449, 341.044686)"><g><path d="M 10.5625 0.359375 C 9.207031 0.359375 7.988281 0.125 6.90625 -0.34375 C 5.820312 -0.8125 4.894531 -1.5 4.125 -2.40625 C 3.363281 -3.3125 2.773438 -4.429688 2.359375 -5.765625 C 1.941406 -7.109375 1.734375 -8.65625 1.734375 -10.40625 C 1.734375 -12.15625 1.941406 -13.695312 2.359375 -15.03125 C 2.773438 -16.363281 3.363281 -17.488281 4.125 -18.40625 C 4.894531 -19.320312 5.820312 -20.007812 6.90625 -20.46875 C 7.988281 -20.9375 9.207031 -21.171875 10.5625 -21.171875 C 11.894531 -21.171875 13.109375 -20.9375 14.203125 -20.46875 C 15.296875 -20.007812 16.222656 -19.320312 16.984375 -18.40625 C 17.753906 -17.488281 18.347656 -16.363281 18.765625 -15.03125 C 19.179688 -13.695312 19.390625 -12.15625 19.390625 -10.40625 C 19.390625 -8.65625 19.179688 -7.109375 18.765625 -5.765625 C 18.347656 -4.429688 17.753906 -3.3125 16.984375 -2.40625 C 16.222656 -1.5 15.296875 -0.8125 14.203125 -0.34375 C 13.109375 0.125 11.894531 0.359375 10.5625 0.359375 Z M 10.5625 -1.875 C 11.457031 -1.875 12.28125 -2.03125 13.03125 -2.34375 C 13.789062 -2.664062 14.441406 -3.125 14.984375 -3.71875 C 15.535156 -4.320312 15.957031 -5.039062 16.25 -5.875 C 16.550781 -6.707031 16.703125 -7.644531 16.703125 -8.6875 L 16.703125 -12.140625 C 16.703125 -13.171875 16.550781 -14.101562 16.25 -14.9375 C 15.957031 -15.78125 15.535156 -16.5 14.984375 -17.09375 C 14.441406 -17.6875 13.789062 -18.140625 13.03125 -18.453125 C 12.28125 -18.773438 11.457031 -18.9375 10.5625 -18.9375 C 9.664062 -18.9375 8.835938 -18.773438 8.078125 -18.453125 C 7.328125 -18.140625 6.675781 -17.6875 6.125 -17.09375 C 5.582031 -16.5 5.160156 -15.78125 4.859375 -14.9375 C 4.566406 -14.101562 4.421875 -13.171875 4.421875 -12.140625 L 4.421875 -8.6875 C 4.421875 -7.644531 4.566406 -6.707031 4.859375 -5.875 C 5.160156 -5.039062 5.582031 -4.320312 6.125 -3.71875 C 6.675781 -3.125 7.328125 -2.664062 8.078125 -2.34375 C 8.835938 -2.03125 9.664062 -1.875 10.5625 -1.875 Z M 10.5625 -1.875 "/></g></g></g><g fill="#112855" fill-opacity="1"><g transform="translate(872.140928, 341.044686)"><g><path d="M 7.8125 -12.703125 L 5.3125 -17.328125 L 5.21875 -17.328125 L 5.21875 0 L 2.78125 0 L 2.78125 -20.8125 L 5.671875 -20.8125 L 13.28125 -8.109375 L 15.78125 -3.484375 L 15.875 -3.484375 L 15.875 -20.8125 L 18.3125 -20.8125 L 18.3125 0 L 15.421875 0 Z M 7.8125 -12.703125 "/></g></g></g><g fill="#112855" fill-opacity="1"><g transform="translate(892.779582, 341.044686)"><g><path d="M 8.625 0.359375 C 6.925781 0.359375 5.476562 0.0351562 4.28125 -0.609375 C 3.09375 -1.253906 2.082031 -2.144531 1.25 -3.28125 L 3.109375 -4.828125 C 3.835938 -3.859375 4.648438 -3.117188 5.546875 -2.609375 C 6.441406 -2.097656 7.492188 -1.84375 8.703125 -1.84375 C 10.203125 -1.84375 11.34375 -2.203125 12.125 -2.921875 C 12.90625 -3.640625 13.296875 -4.59375 13.296875 -5.78125 C 13.296875 -6.78125 13 -7.546875 12.40625 -8.078125 C 11.8125 -8.617188 10.828125 -9.046875 9.453125 -9.359375 L 7.75 -9.75 C 5.84375 -10.1875 4.382812 -10.847656 3.375 -11.734375 C 2.375 -12.617188 1.875 -13.867188 1.875 -15.484375 C 1.875 -16.398438 2.039062 -17.210938 2.375 -17.921875 C 2.71875 -18.640625 3.191406 -19.238281 3.796875 -19.71875 C 4.410156 -20.195312 5.140625 -20.554688 5.984375 -20.796875 C 6.828125 -21.046875 7.753906 -21.171875 8.765625 -21.171875 C 10.335938 -21.171875 11.6875 -20.882812 12.8125 -20.3125 C 13.9375 -19.738281 14.882812 -18.894531 15.65625 -17.78125 L 13.78125 -16.40625 C 13.207031 -17.195312 12.507812 -17.820312 11.6875 -18.28125 C 10.875 -18.738281 9.863281 -18.96875 8.65625 -18.96875 C 7.320312 -18.96875 6.269531 -18.679688 5.5 -18.109375 C 4.738281 -17.546875 4.359375 -16.695312 4.359375 -15.5625 C 4.359375 -14.570312 4.679688 -13.820312 5.328125 -13.3125 C 5.972656 -12.8125 6.953125 -12.410156 8.265625 -12.109375 L 9.96875 -11.71875 C 12.007812 -11.257812 13.488281 -10.5625 14.40625 -9.625 C 15.320312 -8.695312 15.78125 -7.457031 15.78125 -5.90625 C 15.78125 -4.945312 15.613281 -4.078125 15.28125 -3.296875 C 14.957031 -2.523438 14.488281 -1.867188 13.875 -1.328125 C 13.257812 -0.796875 12.507812 -0.378906 11.625 -0.078125 C 10.738281 0.210938 9.738281 0.359375 8.625 0.359375 Z M 8.625 0.359375 "/></g></g></g><g fill="#112855" fill-opacity="1"><g transform="translate(909.660311, 341.044686)"><g><path d="M 10.5625 0.359375 C 9.207031 0.359375 7.988281 0.125 6.90625 -0.34375 C 5.820312 -0.8125 4.894531 -1.5 4.125 -2.40625 C 3.363281 -3.3125 2.773438 -4.429688 2.359375 -5.765625 C 1.941406 -7.109375 1.734375 -8.65625 1.734375 -10.40625 C 1.734375 -12.15625 1.941406 -13.695312 2.359375 -15.03125 C 2.773438 -16.363281 3.363281 -17.488281 4.125 -18.40625 C 4.894531 -19.320312 5.820312 -20.007812 6.90625 -20.46875 C 7.988281 -20.9375 9.207031 -21.171875 10.5625 -21.171875 C 11.894531 -21.171875 13.109375 -20.9375 14.203125 -20.46875 C 15.296875 -20.007812 16.222656 -19.320312 16.984375 -18.40625 C 17.753906 -17.488281 18.347656 -16.363281 18.765625 -15.03125 C 19.179688 -13.695312 19.390625 -12.15625 19.390625 -10.40625 C 19.390625 -8.65625 19.179688 -7.109375 18.765625 -5.765625 C 18.347656 -4.429688 17.753906 -3.3125 16.984375 -2.40625 C 16.222656 -1.5 15.296875 -0.8125 14.203125 -0.34375 C 13.109375 0.125 11.894531 0.359375 10.5625 0.359375 Z M 10.5625 -1.875 C 11.457031 -1.875 12.28125 -2.03125 13.03125 -2.34375 C 13.789062 -2.664062 14.441406 -3.125 14.984375 -3.71875 C 15.535156 -4.320312 15.957031 -5.039062 16.25 -5.875 C 16.550781 -6.707031 16.703125 -7.644531 16.703125 -8.6875 L 16.703125 -12.140625 C 16.703125 -13.171875 16.550781 -14.101562 16.25 -14.9375 C 15.957031 -15.78125 15.535156 -16.5 14.984375 -17.09375 C 14.441406 -17.6875 13.789062 -18.140625 13.03125 -18.453125 C 12.28125 -18.773438 11.457031 -18.9375 10.5625 -18.9375 C 9.664062 -18.9375 8.835938 -18.773438 8.078125 -18.453125 C 7.328125 -18.140625 6.675781 -17.6875 6.125 -17.09375 C 5.582031 -16.5 5.160156 -15.78125 4.859375 -14.9375 C 4.566406 -14.101562 4.421875 -13.171875 4.421875 -12.140625 L 4.421875 -8.6875 C 4.421875 -7.644531 4.566406 -6.707031 4.859375 -5.875 C 5.160156 -5.039062 5.582031 -4.320312 6.125 -3.71875 C 6.675781 -3.125 7.328125 -2.664062 8.078125 -2.34375 C 8.835938 -2.03125 9.664062 -1.875 10.5625 -1.875 Z M 10.765625 -22.515625 L 9.21875 -23.234375 L 11.75 -28.3125 L 13.921875 -27.265625 Z M 10.765625 -22.515625 "/></g></g></g><g fill="#112855" fill-opacity="1"><g transform="translate(930.328791, 341.044686)"><g><path d="M 5.28125 0 L 2.78125 0 L 2.78125 -20.8125 L 11.0625 -20.8125 C 12.894531 -20.8125 14.320312 -20.304688 15.34375 -19.296875 C 16.363281 -18.285156 16.875 -16.820312 16.875 -14.90625 C 16.875 -13.382812 16.519531 -12.128906 15.8125 -11.140625 C 15.113281 -10.160156 14.078125 -9.507812 12.703125 -9.1875 L 17.484375 0 L 14.640625 0 L 10.140625 -8.953125 L 5.28125 -8.953125 Z M 11.0625 -11.09375 C 12.0625 -11.09375 12.832031 -11.347656 13.375 -11.859375 C 13.925781 -12.378906 14.203125 -13.117188 14.203125 -14.078125 L 14.203125 -15.625 C 14.203125 -16.582031 13.925781 -17.316406 13.375 -17.828125 C 12.832031 -18.347656 12.0625 -18.609375 11.0625 -18.609375 L 5.28125 -18.609375 L 5.28125 -11.09375 Z M 11.0625 -11.09375 "/></g></g></g><g fill="#112855" fill-opacity="1"><g transform="translate(948.969175, 341.044686)"><g><path d="M 10.109375 0.359375 C 7.460938 0.359375 5.40625 -0.539062 3.9375 -2.34375 C 2.46875 -4.144531 1.734375 -6.796875 1.734375 -10.296875 C 1.734375 -13.796875 2.46875 -16.484375 3.9375 -18.359375 C 5.40625 -20.234375 7.460938 -21.171875 10.109375 -21.171875 C 11.859375 -21.171875 13.320312 -20.773438 14.5 -19.984375 C 15.6875 -19.191406 16.609375 -18.066406 17.265625 -16.609375 L 15.234375 -15.390625 C 14.816406 -16.460938 14.179688 -17.320312 13.328125 -17.96875 C 12.472656 -18.613281 11.398438 -18.9375 10.109375 -18.9375 C 9.210938 -18.9375 8.410156 -18.765625 7.703125 -18.421875 C 7.003906 -18.085938 6.410156 -17.609375 5.921875 -16.984375 C 5.429688 -16.359375 5.054688 -15.613281 4.796875 -14.75 C 4.546875 -13.882812 4.421875 -12.914062 4.421875 -11.84375 L 4.421875 -8.734375 C 4.421875 -6.585938 4.914062 -4.90625 5.90625 -3.6875 C 6.894531 -2.476562 8.296875 -1.875 10.109375 -1.875 C 11.441406 -1.875 12.554688 -2.21875 13.453125 -2.90625 C 14.347656 -3.59375 15.003906 -4.503906 15.421875 -5.640625 L 17.421875 -4.390625 C 16.765625 -2.910156 15.816406 -1.75 14.578125 -0.90625 C 13.347656 -0.0625 11.859375 0.359375 10.109375 0.359375 Z M 10.109375 0.359375 "/></g></g></g><g fill="#112855" fill-opacity="1"><g transform="translate(967.042891, 341.044686)"><g><path d="M 1.796875 0 L 1.796875 -2.09375 L 4.71875 -2.09375 L 4.71875 -18.734375 L 1.796875 -18.734375 L 1.796875 -20.8125 L 10.140625 -20.8125 L 10.140625 -18.734375 L 7.21875 -18.734375 L 7.21875 -2.09375 L 10.140625 -2.09375 L 10.140625 0 Z M 1.796875 0 "/></g></g></g><g fill="#112855" fill-opacity="1"><g transform="translate(978.525327, 341.044686)"><g><path d="M 10.5625 0.359375 C 9.207031 0.359375 7.988281 0.125 6.90625 -0.34375 C 5.820312 -0.8125 4.894531 -1.5 4.125 -2.40625 C 3.363281 -3.3125 2.773438 -4.429688 2.359375 -5.765625 C 1.941406 -7.109375 1.734375 -8.65625 1.734375 -10.40625 C 1.734375 -12.15625 1.941406 -13.695312 2.359375 -15.03125 C 2.773438 -16.363281 3.363281 -17.488281 4.125 -18.40625 C 4.894531 -19.320312 5.820312 -20.007812 6.90625 -20.46875 C 7.988281 -20.9375 9.207031 -21.171875 10.5625 -21.171875 C 11.894531 -21.171875 13.109375 -20.9375 14.203125 -20.46875 C 15.296875 -20.007812 16.222656 -19.320312 16.984375 -18.40625 C 17.753906 -17.488281 18.347656 -16.363281 18.765625 -15.03125 C 19.179688 -13.695312 19.390625 -12.15625 19.390625 -10.40625 C 19.390625 -8.65625 19.179688 -7.109375 18.765625 -5.765625 C 18.347656 -4.429688 17.753906 -3.3125 16.984375 -2.40625 C 16.222656 -1.5 15.296875 -0.8125 14.203125 -0.34375 C 13.109375 0.125 11.894531 0.359375 10.5625 0.359375 Z M 10.5625 -1.875 C 11.457031 -1.875 12.28125 -2.03125 13.03125 -2.34375 C 13.789062 -2.664062 14.441406 -3.125 14.984375 -3.71875 C 15.535156 -4.320312 15.957031 -5.039062 16.25 -5.875 C 16.550781 -6.707031 16.703125 -7.644531 16.703125 -8.6875 L 16.703125 -12.140625 C 16.703125 -13.171875 16.550781 -14.101562 16.25 -14.9375 C 15.957031 -15.78125 15.535156 -16.5 14.984375 -17.09375 C 14.441406 -17.6875 13.789062 -18.140625 13.03125 -18.453125 C 12.28125 -18.773438 11.457031 -18.9375 10.5625 -18.9375 C 9.664062 -18.9375 8.835938 -18.773438 8.078125 -18.453125 C 7.328125 -18.140625 6.675781 -17.6875 6.125 -17.09375 C 5.582031 -16.5 5.160156 -15.78125 4.859375 -14.9375 C 4.566406 -14.101562 4.421875 -13.171875 4.421875 -12.140625 L 4.421875 -8.6875 C 4.421875 -7.644531 4.566406 -6.707031 4.859375 -5.875 C 5.160156 -5.039062 5.582031 -4.320312 6.125 -3.71875 C 6.675781 -3.125 7.328125 -2.664062 8.078125 -2.34375 C 8.835938 -2.03125 9.664062 -1.875 10.5625 -1.875 Z M 10.5625 -1.875 "/></g></g></g><g fill="#112855" fill-opacity="1"><g transform="translate(999.193801, 341.044686)"><g/></g></g><g fill="#112855" fill-opacity="1"><g transform="translate(1005.784973, 341.044686)"><g><path d="M 2.78125 -20.8125 L 9.75 -20.8125 C 11.039062 -20.8125 12.210938 -20.59375 13.265625 -20.15625 C 14.328125 -19.71875 15.226562 -19.066406 15.96875 -18.203125 C 16.71875 -17.335938 17.289062 -16.253906 17.6875 -14.953125 C 18.082031 -13.648438 18.28125 -12.132812 18.28125 -10.40625 C 18.28125 -8.675781 18.082031 -7.160156 17.6875 -5.859375 C 17.289062 -4.554688 16.71875 -3.472656 15.96875 -2.609375 C 15.226562 -1.742188 14.328125 -1.09375 13.265625 -0.65625 C 12.210938 -0.21875 11.039062 0 9.75 0 L 2.78125 0 Z M 9.75 -2.203125 C 10.601562 -2.203125 11.390625 -2.347656 12.109375 -2.640625 C 12.828125 -2.929688 13.441406 -3.351562 13.953125 -3.90625 C 14.472656 -4.46875 14.875 -5.148438 15.15625 -5.953125 C 15.445312 -6.753906 15.59375 -7.671875 15.59375 -8.703125 L 15.59375 -12.109375 C 15.59375 -13.140625 15.445312 -14.054688 15.15625 -14.859375 C 14.875 -15.671875 14.472656 -16.351562 13.953125 -16.90625 C 13.441406 -17.46875 12.828125 -17.890625 12.109375 -18.171875 C 11.390625 -18.460938 10.601562 -18.609375 9.75 -18.609375 L 5.28125 -18.609375 L 5.28125 -2.203125 Z M 9.75 -2.203125 "/></g></g></g><g fill="#112855" fill-opacity="1"><g transform="translate(1025.349922, 341.044686)"><g><path d="M 2.78125 0 L 2.78125 -20.8125 L 15.484375 -20.8125 L 15.484375 -18.609375 L 5.28125 -18.609375 L 5.28125 -11.640625 L 14.890625 -11.640625 L 14.890625 -9.421875 L 5.28125 -9.421875 L 5.28125 -2.203125 L 15.484375 -2.203125 L 15.484375 0 Z M 2.78125 0 "/></g></g></g><g fill="#112855" fill-opacity="1"><g transform="translate(1042.290303, 341.044686)"><g/></g></g><g fill="#112855" fill-opacity="1"><g transform="translate(1048.881487, 341.044686)"><g><path d="M 9.78125 -18.609375 L 9.78125 0 L 7.28125 0 L 7.28125 -18.609375 L 0.65625 -18.609375 L 0.65625 -20.8125 L 16.40625 -20.8125 L 16.40625 -18.609375 Z M 9.78125 -18.609375 "/></g></g></g><g fill="#112855" fill-opacity="1"><g transform="translate(1065.493781, 341.044686)"><g><path d="M 5.28125 0 L 2.78125 0 L 2.78125 -20.8125 L 11.0625 -20.8125 C 12.894531 -20.8125 14.320312 -20.304688 15.34375 -19.296875 C 16.363281 -18.285156 16.875 -16.820312 16.875 -14.90625 C 16.875 -13.382812 16.519531 -12.128906 15.8125 -11.140625 C 15.113281 -10.160156 14.078125 -9.507812 12.703125 -9.1875 L 17.484375 0 L 14.640625 0 L 10.140625 -8.953125 L 5.28125 -8.953125 Z M 11.0625 -11.09375 C 12.0625 -11.09375 12.832031 -11.347656 13.375 -11.859375 C 13.925781 -12.378906 14.203125 -13.117188 14.203125 -14.078125 L 14.203125 -15.625 C 14.203125 -16.582031 13.925781 -17.316406 13.375 -17.828125 C 12.832031 -18.347656 12.0625 -18.609375 11.0625 -18.609375 L 5.28125 -18.609375 L 5.28125 -11.09375 Z M 11.0625 -11.09375 "/></g></g></g><g fill="#112855" fill-opacity="1"><g transform="translate(1084.134165, 341.044686)"><g><path d="M 15.8125 0 L 13.71875 -6.140625 L 5.3125 -6.140625 L 3.21875 0 L 0.6875 0 L 7.96875 -20.8125 L 11.15625 -20.8125 L 18.4375 0 Z M 9.578125 -18.5 L 9.421875 -18.5 L 5.90625 -8.359375 L 13.09375 -8.359375 Z M 9.578125 -18.5 "/></g></g></g><g fill="#112855" fill-opacity="1"><g transform="translate(1102.804372, 341.044686)"><g><path d="M 7.8125 -12.703125 L 5.3125 -17.328125 L 5.21875 -17.328125 L 5.21875 0 L 2.78125 0 L 2.78125 -20.8125 L 5.671875 -20.8125 L 13.28125 -8.109375 L 15.78125 -3.484375 L 15.875 -3.484375 L 15.875 -20.8125 L 18.3125 -20.8125 L 18.3125 0 L 15.421875 0 Z M 7.8125 -12.703125 "/></g></g></g><g fill="#112855" fill-opacity="1"><g transform="translate(1123.443023, 341.044686)"><g><path d="M 8.625 0.359375 C 6.925781 0.359375 5.476562 0.0351562 4.28125 -0.609375 C 3.09375 -1.253906 2.082031 -2.144531 1.25 -3.28125 L 3.109375 -4.828125 C 3.835938 -3.859375 4.648438 -3.117188 5.546875 -2.609375 C 6.441406 -2.097656 7.492188 -1.84375 8.703125 -1.84375 C 10.203125 -1.84375 11.34375 -2.203125 12.125 -2.921875 C 12.90625 -3.640625 13.296875 -4.59375 13.296875 -5.78125 C 13.296875 -6.78125 13 -7.546875 12.40625 -8.078125 C 11.8125 -8.617188 10.828125 -9.046875 9.453125 -9.359375 L 7.75 -9.75 C 5.84375 -10.1875 4.382812 -10.847656 3.375 -11.734375 C 2.375 -12.617188 1.875 -13.867188 1.875 -15.484375 C 1.875 -16.398438 2.039062 -17.210938 2.375 -17.921875 C 2.71875 -18.640625 3.191406 -19.238281 3.796875 -19.71875 C 4.410156 -20.195312 5.140625 -20.554688 5.984375 -20.796875 C 6.828125 -21.046875 7.753906 -21.171875 8.765625 -21.171875 C 10.335938 -21.171875 11.6875 -20.882812 12.8125 -20.3125 C 13.9375 -19.738281 14.882812 -18.894531 15.65625 -17.78125 L 13.78125 -16.40625 C 13.207031 -17.195312 12.507812 -17.820312 11.6875 -18.28125 C 10.875 -18.738281 9.863281 -18.96875 8.65625 -18.96875 C 7.320312 -18.96875 6.269531 -18.679688 5.5 -18.109375 C 4.738281 -17.546875 4.359375 -16.695312 4.359375 -15.5625 C 4.359375 -14.570312 4.679688 -13.820312 5.328125 -13.3125 C 5.972656 -12.8125 6.953125 -12.410156 8.265625 -12.109375 L 9.96875 -11.71875 C 12.007812 -11.257812 13.488281 -10.5625 14.40625 -9.625 C 15.320312 -8.695312 15.78125 -7.457031 15.78125 -5.90625 C 15.78125 -4.945312 15.613281 -4.078125 15.28125 -3.296875 C 14.957031 -2.523438 14.488281 -1.867188 13.875 -1.328125 C 13.257812 -0.796875 12.507812 -0.378906 11.625 -0.078125 C 10.738281 0.210938 9.738281 0.359375 8.625 0.359375 Z M 8.625 0.359375 "/></g></g></g><g fill="#112855" fill-opacity="1"><g transform="translate(1140.323746, 341.044686)"><g><path d="M 2.78125 0 L 2.78125 -20.8125 L 11.0625 -20.8125 C 12.9375 -20.8125 14.375 -20.28125 15.375 -19.21875 C 16.375 -18.15625 16.875 -16.703125 16.875 -14.859375 C 16.875 -13.003906 16.375 -11.546875 15.375 -10.484375 C 14.375 -9.421875 12.9375 -8.890625 11.0625 -8.890625 L 5.28125 -8.890625 L 5.28125 0 Z M 5.28125 -11.09375 L 11.0625 -11.09375 C 12.0625 -11.09375 12.832031 -11.347656 13.375 -11.859375 C 13.925781 -12.378906 14.203125 -13.117188 14.203125 -14.078125 L 14.203125 -15.625 C 14.203125 -16.582031 13.925781 -17.316406 13.375 -17.828125 C 12.832031 -18.347656 12.0625 -18.609375 11.0625 -18.609375 L 5.28125 -18.609375 Z M 5.28125 -11.09375 "/></g></g></g><g fill="#112855" fill-opacity="1"><g transform="translate(1157.950086, 341.044686)"><g><path d="M 10.5625 0.359375 C 9.207031 0.359375 7.988281 0.125 6.90625 -0.34375 C 5.820312 -0.8125 4.894531 -1.5 4.125 -2.40625 C 3.363281 -3.3125 2.773438 -4.429688 2.359375 -5.765625 C 1.941406 -7.109375 1.734375 -8.65625 1.734375 -10.40625 C 1.734375 -12.15625 1.941406 -13.695312 2.359375 -15.03125 C 2.773438 -16.363281 3.363281 -17.488281 4.125 -18.40625 C 4.894531 -19.320312 5.820312 -20.007812 6.90625 -20.46875 C 7.988281 -20.9375 9.207031 -21.171875 10.5625 -21.171875 C 11.894531 -21.171875 13.109375 -20.9375 14.203125 -20.46875 C 15.296875 -20.007812 16.222656 -19.320312 16.984375 -18.40625 C 17.753906 -17.488281 18.347656 -16.363281 18.765625 -15.03125 C 19.179688 -13.695312 19.390625 -12.15625 19.390625 -10.40625 C 19.390625 -8.65625 19.179688 -7.109375 18.765625 -5.765625 C 18.347656 -4.429688 17.753906 -3.3125 16.984375 -2.40625 C 16.222656 -1.5 15.296875 -0.8125 14.203125 -0.34375 C 13.109375 0.125 11.894531 0.359375 10.5625 0.359375 Z M 10.5625 -1.875 C 11.457031 -1.875 12.28125 -2.03125 13.03125 -2.34375 C 13.789062 -2.664062 14.441406 -3.125 14.984375 -3.71875 C 15.535156 -4.320312 15.957031 -5.039062 16.25 -5.875 C 16.550781 -6.707031 16.703125 -7.644531 16.703125 -8.6875 L 16.703125 -12.140625 C 16.703125 -13.171875 16.550781 -14.101562 16.25 -14.9375 C 15.957031 -15.78125 15.535156 -16.5 14.984375 -17.09375 C 14.441406 -17.6875 13.789062 -18.140625 13.03125 -18.453125 C 12.28125 -18.773438 11.457031 -18.9375 10.5625 -18.9375 C 9.664062 -18.9375 8.835938 -18.773438 8.078125 -18.453125 C 7.328125 -18.140625 6.675781 -17.6875 6.125 -17.09375 C 5.582031 -16.5 5.160156 -15.78125 4.859375 -14.9375 C 4.566406 -14.101562 4.421875 -13.171875 4.421875 -12.140625 L 4.421875 -8.6875 C 4.421875 -7.644531 4.566406 -6.707031 4.859375 -5.875 C 5.160156 -5.039062 5.582031 -4.320312 6.125 -3.71875 C 6.675781 -3.125 7.328125 -2.664062 8.078125 -2.34375 C 8.835938 -2.03125 9.664062 -1.875 10.5625 -1.875 Z M 10.5625 -1.875 "/></g></g></g><g fill="#112855" fill-opacity="1"><g transform="translate(1178.618559, 341.044686)"><g><path d="M 5.28125 0 L 2.78125 0 L 2.78125 -20.8125 L 11.0625 -20.8125 C 12.894531 -20.8125 14.320312 -20.304688 15.34375 -19.296875 C 16.363281 -18.285156 16.875 -16.820312 16.875 -14.90625 C 16.875 -13.382812 16.519531 -12.128906 15.8125 -11.140625 C 15.113281 -10.160156 14.078125 -9.507812 12.703125 -9.1875 L 17.484375 0 L 14.640625 0 L 10.140625 -8.953125 L 5.28125 -8.953125 Z M 11.0625 -11.09375 C 12.0625 -11.09375 12.832031 -11.347656 13.375 -11.859375 C 13.925781 -12.378906 14.203125 -13.117188 14.203125 -14.078125 L 14.203125 -15.625 C 14.203125 -16.582031 13.925781 -17.316406 13.375 -17.828125 C 12.832031 -18.347656 12.0625 -18.609375 11.0625 -18.609375 L 5.28125 -18.609375 L 5.28125 -11.09375 Z M 11.0625 -11.09375 "/></g></g></g><g fill="#112855" fill-opacity="1"><g transform="translate(1197.258944, 341.044686)"><g><path d="M 9.78125 -18.609375 L 9.78125 0 L 7.28125 0 L 7.28125 -18.609375 L 0.65625 -18.609375 L 0.65625 -20.8125 L 16.40625 -20.8125 L 16.40625 -18.609375 Z M 9.78125 -18.609375 "/></g></g></g><g fill="#112855" fill-opacity="1"><g transform="translate(1213.871238, 341.044686)"><g><path d="M 2.78125 0 L 2.78125 -20.8125 L 15.484375 -20.8125 L 15.484375 -18.609375 L 5.28125 -18.609375 L 5.28125 -11.640625 L 14.890625 -11.640625 L 14.890625 -9.421875 L 5.28125 -9.421875 L 5.28125 -2.203125 L 15.484375 -2.203125 L 15.484375 0 Z M 2.78125 0 "/></g></g></g></svg>