<svg xmlns="http://www.w3.org/2000/svg" xmlns:xlink="http://www.w3.org/1999/xlink" width="1080" zoomAndPan="magnify" viewBox="0 0 810 809.999993" height="1080" preserveAspectRatio="xMidYMid meet" version="1.0"><defs><g/><clipPath id="96fff74982"><path d="M 149 257 L 261 257 L 261 266 L 149 266 Z M 149 257 " clip-rule="nonzero"/></clipPath><clipPath id="16dc1dcfa4"><path d="M 67.910156 235.390625 L 194.703125 117.359375 L 305.910156 236.824219 L 179.117188 354.851562 Z M 67.910156 235.390625 " clip-rule="nonzero"/></clipPath><clipPath id="a2ccbffd26"><path d="M 67.910156 235.390625 L 194.703125 117.359375 L 305.910156 236.824219 L 179.117188 354.851562 Z M 67.910156 235.390625 " clip-rule="nonzero"/></clipPath><clipPath id="f4c83176fc"><path d="M 125 257 L 142 257 L 142 266 L 125 266 Z M 125 257 " clip-rule="nonzero"/></clipPath><clipPath id="c482595bde"><path d="M 67.910156 235.390625 L 194.703125 117.359375 L 305.910156 236.824219 L 179.117188 354.851562 Z M 67.910156 235.390625 " clip-rule="nonzero"/></clipPath><clipPath id="c5f21099d5"><path d="M 67.910156 235.390625 L 194.703125 117.359375 L 305.910156 236.824219 L 179.117188 354.851562 Z M 67.910156 235.390625 " clip-rule="nonzero"/></clipPath><clipPath id="04cdfdb6c8"><path d="M 94 233 L 175 233 L 175 242 L 94 242 Z M 94 233 " clip-rule="nonzero"/></clipPath><clipPath id="52794b36db"><path d="M 67.910156 235.390625 L 194.703125 117.359375 L 305.910156 236.824219 L 179.117188 354.851562 Z M 67.910156 235.390625 " clip-rule="nonzero"/></clipPath><clipPath id="965c4ad680"><path d="M 67.910156 235.390625 L 194.703125 117.359375 L 305.910156 236.824219 L 179.117188 354.851562 Z M 67.910156 235.390625 " clip-rule="nonzero"/></clipPath><clipPath id="8a9b935627"><path d="M 181 233 L 207 233 L 207 242 L 181 242 Z M 181 233 " clip-rule="nonzero"/></clipPath><clipPath id="a0e5e9a333"><path d="M 67.910156 235.390625 L 194.703125 117.359375 L 305.910156 236.824219 L 179.117188 354.851562 Z M 67.910156 235.390625 " clip-rule="nonzero"/></clipPath><clipPath id="71980b1e06"><path d="M 67.910156 235.390625 L 194.703125 117.359375 L 305.910156 236.824219 L 179.117188 354.851562 Z M 67.910156 235.390625 " clip-rule="nonzero"/></clipPath><clipPath id="3c56e0a0ef"><path d="M 213 232 L 304 232 L 304 242 L 213 242 Z M 213 232 " clip-rule="nonzero"/></clipPath><clipPath id="d533cb1c80"><path d="M 67.910156 235.390625 L 194.703125 117.359375 L 305.910156 236.824219 L 179.117188 354.851562 Z M 67.910156 235.390625 " clip-rule="nonzero"/></clipPath><clipPath id="cb47038d52"><path d="M 67.910156 235.390625 L 194.703125 117.359375 L 305.910156 236.824219 L 179.117188 354.851562 Z M 67.910156 235.390625 " clip-rule="nonzero"/></clipPath><clipPath id="dbd3e9a173"><path d="M 72 233 L 87 233 L 87 242 L 72 242 Z M 72 233 " clip-rule="nonzero"/></clipPath><clipPath id="b9a3ba8ae6"><path d="M 67.910156 235.390625 L 194.703125 117.359375 L 305.910156 236.824219 L 179.117188 354.851562 Z M 67.910156 235.390625 " clip-rule="nonzero"/></clipPath><clipPath id="957506b538"><path d="M 67.910156 235.390625 L 194.703125 117.359375 L 305.910156 236.824219 L 179.117188 354.851562 Z M 67.910156 235.390625 " clip-rule="nonzero"/></clipPath><clipPath id="c991ee3f05"><path d="M 89 213 L 241 213 L 241 222 L 89 222 Z M 89 213 " clip-rule="nonzero"/></clipPath><clipPath id="11de91cbd8"><path d="M 67.910156 235.390625 L 194.703125 117.359375 L 305.910156 236.824219 L 179.117188 354.851562 Z M 67.910156 235.390625 " clip-rule="nonzero"/></clipPath><clipPath id="e8e291c3bc"><path d="M 67.910156 235.390625 L 194.703125 117.359375 L 305.910156 236.824219 L 179.117188 354.851562 Z M 67.910156 235.390625 " clip-rule="nonzero"/></clipPath><clipPath id="7ca58be866"><path d="M 387 257 L 499 257 L 499 266 L 387 266 Z M 387 257 " clip-rule="nonzero"/></clipPath><clipPath id="f82b310fa8"><path d="M 306.085938 235.390625 L 432.875 117.359375 L 544.082031 236.824219 L 417.292969 354.851562 Z M 306.085938 235.390625 " clip-rule="nonzero"/></clipPath><clipPath id="56be91d062"><path d="M 306.085938 235.390625 L 432.875 117.359375 L 544.082031 236.824219 L 417.292969 354.851562 Z M 306.085938 235.390625 " clip-rule="nonzero"/></clipPath><clipPath id="4dbbb960d3"><path d="M 364 257 L 380 257 L 380 266 L 364 266 Z M 364 257 " clip-rule="nonzero"/></clipPath><clipPath id="08f270c7ce"><path d="M 306.085938 235.390625 L 432.875 117.359375 L 544.082031 236.824219 L 417.292969 354.851562 Z M 306.085938 235.390625 " clip-rule="nonzero"/></clipPath><clipPath id="814e6711ca"><path d="M 306.085938 235.390625 L 432.875 117.359375 L 544.082031 236.824219 L 417.292969 354.851562 Z M 306.085938 235.390625 " clip-rule="nonzero"/></clipPath><clipPath id="f7047d8a6b"><path d="M 332 233 L 413 233 L 413 242 L 332 242 Z M 332 233 " clip-rule="nonzero"/></clipPath><clipPath id="1db73a82b5"><path d="M 306.085938 235.390625 L 432.875 117.359375 L 544.082031 236.824219 L 417.292969 354.851562 Z M 306.085938 235.390625 " clip-rule="nonzero"/></clipPath><clipPath id="82c29950fa"><path d="M 306.085938 235.390625 L 432.875 117.359375 L 544.082031 236.824219 L 417.292969 354.851562 Z M 306.085938 235.390625 " clip-rule="nonzero"/></clipPath><clipPath id="306be0d7d2"><path d="M 419 233 L 445 233 L 445 242 L 419 242 Z M 419 233 " clip-rule="nonzero"/></clipPath><clipPath id="8f2003a00b"><path d="M 306.085938 235.390625 L 432.875 117.359375 L 544.082031 236.824219 L 417.292969 354.851562 Z M 306.085938 235.390625 " clip-rule="nonzero"/></clipPath><clipPath id="59df8d3d8d"><path d="M 306.085938 235.390625 L 432.875 117.359375 L 544.082031 236.824219 L 417.292969 354.851562 Z M 306.085938 235.390625 " clip-rule="nonzero"/></clipPath><clipPath id="bd1fe52f39"><path d="M 451 232 L 543 232 L 543 242 L 451 242 Z M 451 232 " clip-rule="nonzero"/></clipPath><clipPath id="ea9e6754ee"><path d="M 306.085938 235.390625 L 432.875 117.359375 L 544.082031 236.824219 L 417.292969 354.851562 Z M 306.085938 235.390625 " clip-rule="nonzero"/></clipPath><clipPath id="b0e34de7aa"><path d="M 306.085938 235.390625 L 432.875 117.359375 L 544.082031 236.824219 L 417.292969 354.851562 Z M 306.085938 235.390625 " clip-rule="nonzero"/></clipPath><clipPath id="0a33e6eb76"><path d="M 310 233 L 326 233 L 326 242 L 310 242 Z M 310 233 " clip-rule="nonzero"/></clipPath><clipPath id="bc0570d41f"><path d="M 306.085938 235.390625 L 432.875 117.359375 L 544.082031 236.824219 L 417.292969 354.851562 Z M 306.085938 235.390625 " clip-rule="nonzero"/></clipPath><clipPath id="5707b3d6ac"><path d="M 306.085938 235.390625 L 432.875 117.359375 L 544.082031 236.824219 L 417.292969 354.851562 Z M 306.085938 235.390625 " clip-rule="nonzero"/></clipPath><clipPath id="63f3700cf9"><path d="M 327 213 L 479 213 L 479 222 L 327 222 Z M 327 213 " clip-rule="nonzero"/></clipPath><clipPath id="369201f00c"><path d="M 306.085938 235.390625 L 432.875 117.359375 L 544.082031 236.824219 L 417.292969 354.851562 Z M 306.085938 235.390625 " clip-rule="nonzero"/></clipPath><clipPath id="292caef4d6"><path d="M 306.085938 235.390625 L 432.875 117.359375 L 544.082031 236.824219 L 417.292969 354.851562 Z M 306.085938 235.390625 " clip-rule="nonzero"/></clipPath><clipPath id="fd91117b01"><path d="M 549 208 L 661 208 L 661 218 L 549 218 Z M 549 208 " clip-rule="nonzero"/></clipPath><clipPath id="63e0e79d37"><path d="M 742.085938 240.992188 L 613.554688 357.125 L 504.136719 236.023438 L 632.664062 119.890625 Z M 742.085938 240.992188 " clip-rule="nonzero"/></clipPath><clipPath id="de5ce3656d"><path d="M 742.085938 240.992188 L 613.554688 357.125 L 504.136719 236.023438 L 632.664062 119.890625 Z M 742.085938 240.992188 " clip-rule="nonzero"/></clipPath><clipPath id="a2e68d723e"><path d="M 668 209 L 685 209 L 685 219 L 668 219 Z M 668 209 " clip-rule="nonzero"/></clipPath><clipPath id="9612602956"><path d="M 742.085938 240.992188 L 613.554688 357.125 L 504.136719 236.023438 L 632.664062 119.890625 Z M 742.085938 240.992188 " clip-rule="nonzero"/></clipPath><clipPath id="a4aaa06907"><path d="M 742.085938 240.992188 L 613.554688 357.125 L 504.136719 236.023438 L 632.664062 119.890625 Z M 742.085938 240.992188 " clip-rule="nonzero"/></clipPath><clipPath id="28b794a9b0"><path d="M 635 233 L 716 233 L 716 243 L 635 243 Z M 635 233 " clip-rule="nonzero"/></clipPath><clipPath id="609eb44694"><path d="M 742.085938 240.992188 L 613.554688 357.125 L 504.136719 236.023438 L 632.664062 119.890625 Z M 742.085938 240.992188 " clip-rule="nonzero"/></clipPath><clipPath id="7daf1476a1"><path d="M 742.085938 240.992188 L 613.554688 357.125 L 504.136719 236.023438 L 632.664062 119.890625 Z M 742.085938 240.992188 " clip-rule="nonzero"/></clipPath><clipPath id="2e11234b90"><path d="M 603 233 L 629 233 L 629 242 L 603 242 Z M 603 233 " clip-rule="nonzero"/></clipPath><clipPath id="4aee3fe6aa"><path d="M 742.085938 240.992188 L 613.554688 357.125 L 504.136719 236.023438 L 632.664062 119.890625 Z M 742.085938 240.992188 " clip-rule="nonzero"/></clipPath><clipPath id="d994a3b1e7"><path d="M 742.085938 240.992188 L 613.554688 357.125 L 504.136719 236.023438 L 632.664062 119.890625 Z M 742.085938 240.992188 " clip-rule="nonzero"/></clipPath><clipPath id="76cd70e627"><path d="M 506 232 L 597 232 L 597 241 L 506 241 Z M 506 232 " clip-rule="nonzero"/></clipPath><clipPath id="4fcb6f6a8c"><path d="M 742.085938 240.992188 L 613.554688 357.125 L 504.136719 236.023438 L 632.664062 119.890625 Z M 742.085938 240.992188 " clip-rule="nonzero"/></clipPath><clipPath id="51d2167a28"><path d="M 742.085938 240.992188 L 613.554688 357.125 L 504.136719 236.023438 L 632.664062 119.890625 Z M 742.085938 240.992188 " clip-rule="nonzero"/></clipPath><clipPath id="58876e3763"><path d="M 723 234 L 738 234 L 738 243 L 723 243 Z M 723 234 " clip-rule="nonzero"/></clipPath><clipPath id="3396187ad4"><path d="M 742.085938 240.992188 L 613.554688 357.125 L 504.136719 236.023438 L 632.664062 119.890625 Z M 742.085938 240.992188 " clip-rule="nonzero"/></clipPath><clipPath id="69a4dd86ec"><path d="M 742.085938 240.992188 L 613.554688 357.125 L 504.136719 236.023438 L 632.664062 119.890625 Z M 742.085938 240.992188 " clip-rule="nonzero"/></clipPath><clipPath id="7cf60af076"><path d="M 568 252 L 721 252 L 721 263 L 568 263 Z M 568 252 " clip-rule="nonzero"/></clipPath><clipPath id="9ea2613960"><path d="M 742.085938 240.992188 L 613.554688 357.125 L 504.136719 236.023438 L 632.664062 119.890625 Z M 742.085938 240.992188 " clip-rule="nonzero"/></clipPath><clipPath id="91d6fb13f0"><path d="M 742.085938 240.992188 L 613.554688 357.125 L 504.136719 236.023438 L 632.664062 119.890625 Z M 742.085938 240.992188 " clip-rule="nonzero"/></clipPath></defs><rect x="-81" width="972" fill="#ffffff" y="-80.999999" height="971.999992" fill-opacity="1"/><rect x="-81" width="972" fill="#ffffff" y="-80.999999" height="971.999992" fill-opacity="1"/><g fill="#0d2648" fill-opacity="1"><g transform="translate(46.953288, 548.968308)"><g><path d="M 119.03125 2.59375 C 88.71875 2.59375 63.828125 -4.613281 44.359375 -19.03125 C 24.890625 -33.445312 14.414062 -54.085938 12.9375 -80.953125 L 90.203125 -80.953125 C 90.941406 -71.835938 93.648438 -65.1875 98.328125 -61 C 103.015625 -56.8125 109.054688 -54.71875 116.453125 -54.71875 C 123.097656 -54.71875 128.578125 -56.378906 132.890625 -59.703125 C 137.203125 -63.023438 139.359375 -67.644531 139.359375 -73.5625 C 139.359375 -81.207031 135.785156 -87.125 128.640625 -91.3125 C 121.492188 -95.5 109.910156 -100.179688 93.890625 -105.359375 C 76.890625 -111.023438 63.148438 -116.503906 52.671875 -121.796875 C 42.203125 -127.097656 33.082031 -134.863281 25.3125 -145.09375 C 17.550781 -155.320312 13.671875 -168.691406 13.671875 -185.203125 C 13.671875 -201.960938 17.859375 -216.316406 26.234375 -228.265625 C 34.617188 -240.222656 46.203125 -249.28125 60.984375 -255.4375 C 75.773438 -261.601562 92.535156 -264.6875 111.265625 -264.6875 C 141.578125 -264.6875 165.789062 -257.597656 183.90625 -243.421875 C 202.019531 -229.253906 211.695312 -209.359375 212.9375 -183.734375 L 134.1875 -183.734375 C 133.945312 -191.617188 131.546875 -197.53125 126.984375 -201.46875 C 122.421875 -205.414062 116.566406 -207.390625 109.421875 -207.390625 C 104.003906 -207.390625 99.566406 -205.785156 96.109375 -202.578125 C 92.660156 -199.378906 90.9375 -194.820312 90.9375 -188.90625 C 90.9375 -183.976562 92.847656 -179.722656 96.671875 -176.140625 C 100.492188 -172.566406 105.238281 -169.488281 110.90625 -166.90625 C 116.570312 -164.320312 124.953125 -161.054688 136.046875 -157.109375 C 152.554688 -151.441406 166.171875 -145.832031 176.890625 -140.28125 C 187.609375 -134.738281 196.847656 -126.976562 204.609375 -117 C 212.378906 -107.019531 216.265625 -94.390625 216.265625 -79.109375 C 216.265625 -63.585938 212.378906 -49.664062 204.609375 -37.34375 C 196.847656 -25.019531 185.632812 -15.28125 170.96875 -8.125 C 156.3125 -0.976562 139 2.59375 119.03125 2.59375 Z M 119.03125 2.59375 "/></g></g></g><g fill="#e44636" fill-opacity="1"><g transform="translate(289.831443, 548.968308)"><g><path d="M 93.15625 -260.625 L 93.15625 0 L 20.703125 0 L 20.703125 -260.625 Z M 93.15625 -260.625 "/></g></g></g><g fill="#f8bd00" fill-opacity="1"><g transform="translate(417.3722, 548.968308)"><g><path d="M 324.9375 -260.625 L 324.9375 0 L 252.484375 0 L 252.484375 -143.796875 L 203.3125 0 L 142.6875 0 L 93.15625 -144.90625 L 93.15625 0 L 20.703125 0 L 20.703125 -260.625 L 108.3125 -260.625 L 173.75 -91.3125 L 237.703125 -260.625 Z M 324.9375 -260.625 "/></g></g></g><g fill="#0d2648" fill-opacity="1"><g transform="translate(67.909073, 622.576853)"><g><path d="M 9.921875 0.25 C 7.140625 0.25 5.175781 -0.328125 4.03125 -1.484375 C 2.882812 -2.648438 2.3125 -4.609375 2.3125 -7.359375 L 2.3125 -10.40625 C 2.3125 -11.0625 2.640625 -11.390625 3.296875 -11.390625 L 8.296875 -11.390625 C 8.953125 -11.390625 9.28125 -11.0625 9.28125 -10.40625 L 9.28125 -7.359375 C 9.28125 -6.472656 9.46875 -5.84375 9.84375 -5.46875 C 10.21875 -5.09375 10.847656 -4.90625 11.734375 -4.90625 L 13.359375 -4.90625 C 14.234375 -4.90625 14.859375 -5.09375 15.234375 -5.46875 C 15.617188 -5.84375 15.8125 -6.472656 15.8125 -7.359375 L 15.8125 -12.765625 C 15.8125 -13.484375 15.628906 -14.003906 15.265625 -14.328125 C 14.910156 -14.660156 14.351562 -14.828125 13.59375 -14.828125 L 10.015625 -14.828125 C 7.328125 -14.828125 5.410156 -15.390625 4.265625 -16.515625 C 3.117188 -17.648438 2.546875 -19.539062 2.546875 -22.1875 L 2.546875 -26.75 C 2.546875 -29.53125 3.117188 -31.492188 4.265625 -32.640625 C 5.410156 -33.785156 7.375 -34.359375 10.15625 -34.359375 L 14.4375 -34.359375 C 17.21875 -34.359375 19.179688 -33.785156 20.328125 -32.640625 C 21.472656 -31.492188 22.046875 -29.53125 22.046875 -26.75 L 22.046875 -24.15625 C 22.046875 -23.5 21.71875 -23.171875 21.0625 -23.171875 L 16.046875 -23.171875 C 15.398438 -23.171875 15.078125 -23.5 15.078125 -24.15625 L 15.078125 -26.75 C 15.078125 -27.632812 14.882812 -28.265625 14.5 -28.640625 C 14.125 -29.015625 13.492188 -29.203125 12.609375 -29.203125 L 11.875 -29.203125 C 11 -29.203125 10.367188 -29.015625 9.984375 -28.640625 C 9.609375 -28.265625 9.421875 -27.632812 9.421875 -26.75 L 9.421875 -22.09375 C 9.421875 -21.375 9.59375 -20.84375 9.9375 -20.5 C 10.28125 -20.15625 10.847656 -19.984375 11.640625 -19.984375 L 15.171875 -19.984375 C 17.890625 -19.984375 19.820312 -19.414062 20.96875 -18.28125 C 22.113281 -17.15625 22.6875 -15.265625 22.6875 -12.609375 L 22.6875 -7.359375 C 22.6875 -4.609375 22.101562 -2.648438 20.9375 -1.484375 C 19.78125 -0.328125 17.828125 0.25 15.078125 0.25 Z M 9.921875 0.25 "/></g></g></g><g fill="#0d2648" fill-opacity="1"><g transform="translate(92.650583, 622.576853)"><g><path d="M 11.4375 -28.96875 L 11.4375 -5.40625 L 13.984375 -5.40625 C 14.640625 -5.40625 14.96875 -5.078125 14.96875 -4.421875 L 14.96875 -0.984375 C 14.96875 -0.328125 14.640625 0 13.984375 0 L 1.96875 0 C 1.3125 0 0.984375 -0.328125 0.984375 -0.984375 L 0.984375 -4.421875 C 0.984375 -5.078125 1.3125 -5.40625 1.96875 -5.40625 L 4.5625 -5.40625 L 4.5625 -28.96875 L 1.96875 -28.96875 C 1.3125 -28.96875 0.984375 -29.296875 0.984375 -29.953125 L 0.984375 -33.390625 C 0.984375 -34.035156 1.3125 -34.359375 1.96875 -34.359375 L 13.984375 -34.359375 C 14.640625 -34.359375 14.96875 -34.035156 14.96875 -33.390625 L 14.96875 -29.953125 C 14.96875 -29.296875 14.640625 -28.96875 13.984375 -28.96875 Z M 11.4375 -28.96875 "/></g></g></g><g fill="#0d2648" fill-opacity="1"><g transform="translate(108.604923, 622.576853)"><g><path d="M 9.921875 0.25 C 7.140625 0.25 5.175781 -0.328125 4.03125 -1.484375 C 2.882812 -2.648438 2.3125 -4.609375 2.3125 -7.359375 L 2.3125 -10.40625 C 2.3125 -11.0625 2.640625 -11.390625 3.296875 -11.390625 L 8.296875 -11.390625 C 8.953125 -11.390625 9.28125 -11.0625 9.28125 -10.40625 L 9.28125 -7.359375 C 9.28125 -6.472656 9.46875 -5.84375 9.84375 -5.46875 C 10.21875 -5.09375 10.847656 -4.90625 11.734375 -4.90625 L 13.359375 -4.90625 C 14.234375 -4.90625 14.859375 -5.09375 15.234375 -5.46875 C 15.617188 -5.84375 15.8125 -6.472656 15.8125 -7.359375 L 15.8125 -12.765625 C 15.8125 -13.484375 15.628906 -14.003906 15.265625 -14.328125 C 14.910156 -14.660156 14.351562 -14.828125 13.59375 -14.828125 L 10.015625 -14.828125 C 7.328125 -14.828125 5.410156 -15.390625 4.265625 -16.515625 C 3.117188 -17.648438 2.546875 -19.539062 2.546875 -22.1875 L 2.546875 -26.75 C 2.546875 -29.53125 3.117188 -31.492188 4.265625 -32.640625 C 5.410156 -33.785156 7.375 -34.359375 10.15625 -34.359375 L 14.4375 -34.359375 C 17.21875 -34.359375 19.179688 -33.785156 20.328125 -32.640625 C 21.472656 -31.492188 22.046875 -29.53125 22.046875 -26.75 L 22.046875 -24.15625 C 22.046875 -23.5 21.71875 -23.171875 21.0625 -23.171875 L 16.046875 -23.171875 C 15.398438 -23.171875 15.078125 -23.5 15.078125 -24.15625 L 15.078125 -26.75 C 15.078125 -27.632812 14.882812 -28.265625 14.5 -28.640625 C 14.125 -29.015625 13.492188 -29.203125 12.609375 -29.203125 L 11.875 -29.203125 C 11 -29.203125 10.367188 -29.015625 9.984375 -28.640625 C 9.609375 -28.265625 9.421875 -27.632812 9.421875 -26.75 L 9.421875 -22.09375 C 9.421875 -21.375 9.59375 -20.84375 9.9375 -20.5 C 10.28125 -20.15625 10.847656 -19.984375 11.640625 -19.984375 L 15.171875 -19.984375 C 17.890625 -19.984375 19.820312 -19.414062 20.96875 -18.28125 C 22.113281 -17.15625 22.6875 -15.265625 22.6875 -12.609375 L 22.6875 -7.359375 C 22.6875 -4.609375 22.101562 -2.648438 20.9375 -1.484375 C 19.78125 -0.328125 17.828125 0.25 15.078125 0.25 Z M 9.921875 0.25 "/></g></g></g><g fill="#0d2648" fill-opacity="1"><g transform="translate(133.346433, 622.576853)"><g><path d="M 20.125 -34.359375 C 20.78125 -34.359375 21.109375 -34.035156 21.109375 -33.390625 L 21.109375 -29.453125 C 21.109375 -28.796875 20.78125 -28.46875 20.125 -28.46875 L 14.140625 -28.46875 L 14.140625 -0.984375 C 14.140625 -0.328125 13.8125 0 13.15625 0 L 8.25 0 C 7.59375 0 7.265625 -0.328125 7.265625 -0.984375 L 7.265625 -28.46875 L 1.234375 -28.46875 C 0.578125 -28.46875 0.25 -28.796875 0.25 -29.453125 L 0.25 -33.390625 C 0.25 -34.035156 0.578125 -34.359375 1.234375 -34.359375 Z M 20.125 -34.359375 "/></g></g></g><g fill="#0d2648" fill-opacity="1"><g transform="translate(154.70072, 622.576853)"><g><path d="M 19.78125 -5.640625 C 20.4375 -5.640625 20.765625 -5.3125 20.765625 -4.65625 L 20.765625 -0.984375 C 20.765625 -0.328125 20.4375 0 19.78125 0 L 3.828125 0 C 3.171875 0 2.84375 -0.328125 2.84375 -0.984375 L 2.84375 -33.390625 C 2.84375 -34.035156 3.171875 -34.359375 3.828125 -34.359375 L 19.296875 -34.359375 C 19.953125 -34.359375 20.28125 -34.035156 20.28125 -33.390625 L 20.28125 -29.703125 C 20.28125 -29.046875 19.953125 -28.71875 19.296875 -28.71875 L 9.71875 -28.71875 L 9.71875 -20.28125 L 16.34375 -20.28125 C 17 -20.28125 17.328125 -19.953125 17.328125 -19.296875 L 17.328125 -15.609375 C 17.328125 -14.953125 17 -14.625 16.34375 -14.625 L 9.71875 -14.625 L 9.71875 -5.640625 Z M 19.78125 -5.640625 "/></g></g></g><g fill="#0d2648" fill-opacity="1"><g transform="translate(176.055006, 622.576853)"><g><path d="M 3.828125 0 C 3.171875 0 2.84375 -0.328125 2.84375 -0.984375 L 2.84375 -33.390625 C 2.84375 -34.035156 3.171875 -34.359375 3.828125 -34.359375 L 9.765625 -34.359375 C 10.097656 -34.359375 10.34375 -34.289062 10.5 -34.15625 C 10.664062 -34.03125 10.78125 -33.820312 10.84375 -33.53125 L 15.171875 -17.421875 L 16.046875 -17.421875 L 20.328125 -33.53125 C 20.453125 -34.082031 20.828125 -34.359375 21.453125 -34.359375 L 27.390625 -34.359375 C 28.046875 -34.359375 28.375 -34.035156 28.375 -33.390625 L 28.375 -0.984375 C 28.375 -0.328125 28.046875 0 27.390625 0 L 22.734375 0 C 22.078125 0 21.75 -0.328125 21.75 -0.984375 L 21.75 -12.421875 L 24.0625 -24.796875 L 23.171875 -24.796875 L 18.171875 -8.203125 C 18.066406 -7.898438 17.929688 -7.679688 17.765625 -7.546875 C 17.609375 -7.421875 17.378906 -7.359375 17.078125 -7.359375 L 14.140625 -7.359375 C 13.804688 -7.359375 13.554688 -7.421875 13.390625 -7.546875 C 13.234375 -7.679688 13.109375 -7.898438 13.015625 -8.203125 L 8.046875 -24.796875 L 7.171875 -24.796875 L 9.46875 -12.421875 L 9.46875 -0.984375 C 9.46875 -0.328125 9.144531 0 8.5 0 Z M 3.828125 0 "/></g></g></g><g fill="#0d2648" fill-opacity="1"><g transform="translate(207.276437, 622.576853)"><g><path d="M 21.703125 -1.234375 C 21.734375 -1.128906 21.75 -1.015625 21.75 -0.890625 C 21.75 -0.296875 21.40625 0 20.71875 0 L 16.046875 0 C 15.722656 0 15.476562 -0.0625 15.3125 -0.1875 C 15.15625 -0.320312 15.054688 -0.554688 15.015625 -0.890625 L 14.140625 -6.03125 L 7.703125 -6.03125 L 6.828125 -0.890625 C 6.796875 -0.554688 6.695312 -0.320312 6.53125 -0.1875 C 6.363281 -0.0625 6.117188 0 5.796875 0 L 1.171875 0 C 0.328125 0 -0.015625 -0.410156 0.140625 -1.234375 L 6.53125 -33.53125 C 6.59375 -33.851562 6.695312 -34.070312 6.84375 -34.1875 C 6.988281 -34.300781 7.226562 -34.359375 7.5625 -34.359375 L 14.28125 -34.359375 C 14.613281 -34.359375 14.851562 -34.300781 15 -34.1875 C 15.144531 -34.070312 15.25 -33.851562 15.3125 -33.53125 Z M 11.296875 -26.515625 L 10.5625 -26.515625 L 9.71875 -18.953125 L 8.34375 -11.296875 L 13.453125 -11.296875 L 12.125 -18.953125 Z M 11.296875 -26.515625 "/></g></g></g><g fill="#0d2648" fill-opacity="1"><g transform="translate(229.121629, 622.576853)"><g/></g></g><g fill="#0d2648" fill-opacity="1"><g transform="translate(238.69423, 622.576853)"><g><path d="M 11.4375 -28.96875 L 11.4375 -5.40625 L 13.984375 -5.40625 C 14.640625 -5.40625 14.96875 -5.078125 14.96875 -4.421875 L 14.96875 -0.984375 C 14.96875 -0.328125 14.640625 0 13.984375 0 L 1.96875 0 C 1.3125 0 0.984375 -0.328125 0.984375 -0.984375 L 0.984375 -4.421875 C 0.984375 -5.078125 1.3125 -5.40625 1.96875 -5.40625 L 4.5625 -5.40625 L 4.5625 -28.96875 L 1.96875 -28.96875 C 1.3125 -28.96875 0.984375 -29.296875 0.984375 -29.953125 L 0.984375 -33.390625 C 0.984375 -34.035156 1.3125 -34.359375 1.96875 -34.359375 L 13.984375 -34.359375 C 14.640625 -34.359375 14.96875 -34.035156 14.96875 -33.390625 L 14.96875 -29.953125 C 14.96875 -29.296875 14.640625 -28.96875 13.984375 -28.96875 Z M 11.4375 -28.96875 "/></g></g></g><g fill="#0d2648" fill-opacity="1"><g transform="translate(254.64857, 622.576853)"><g><path d="M 3.828125 0 C 3.171875 0 2.84375 -0.328125 2.84375 -0.984375 L 2.84375 -33.390625 C 2.84375 -34.035156 3.171875 -34.359375 3.828125 -34.359375 L 9.078125 -34.359375 C 9.410156 -34.359375 9.65625 -34.289062 9.8125 -34.15625 C 9.976562 -34.03125 10.113281 -33.835938 10.21875 -33.578125 L 17.828125 -9.578125 L 18.65625 -9.578125 L 16.34375 -20.28125 L 16.34375 -33.390625 C 16.34375 -34.035156 16.671875 -34.359375 17.328125 -34.359375 L 22 -34.359375 C 22.644531 -34.359375 22.96875 -34.035156 22.96875 -33.390625 L 22.96875 -0.984375 C 22.96875 -0.328125 22.644531 0 22 0 L 16.6875 0 C 16.394531 0 16.164062 -0.0625 16 -0.1875 C 15.84375 -0.320312 15.710938 -0.535156 15.609375 -0.828125 L 8 -24.796875 L 7.125 -24.796875 L 9.46875 -14.09375 L 9.46875 -0.984375 C 9.46875 -0.328125 9.144531 0 8.5 0 Z M 3.828125 0 "/></g></g></g><g fill="#0d2648" fill-opacity="1"><g transform="translate(280.470072, 622.576853)"><g><path d="M 20.125 -34.359375 C 20.78125 -34.359375 21.109375 -34.035156 21.109375 -33.390625 L 21.109375 -29.453125 C 21.109375 -28.796875 20.78125 -28.46875 20.125 -28.46875 L 14.140625 -28.46875 L 14.140625 -0.984375 C 14.140625 -0.328125 13.8125 0 13.15625 0 L 8.25 0 C 7.59375 0 7.265625 -0.328125 7.265625 -0.984375 L 7.265625 -28.46875 L 1.234375 -28.46875 C 0.578125 -28.46875 0.25 -28.796875 0.25 -29.453125 L 0.25 -33.390625 C 0.25 -34.035156 0.578125 -34.359375 1.234375 -34.359375 Z M 20.125 -34.359375 "/></g></g></g><g fill="#0d2648" fill-opacity="1"><g transform="translate(301.824359, 622.576853)"><g><path d="M 19.78125 -5.640625 C 20.4375 -5.640625 20.765625 -5.3125 20.765625 -4.65625 L 20.765625 -0.984375 C 20.765625 -0.328125 20.4375 0 19.78125 0 L 3.828125 0 C 3.171875 0 2.84375 -0.328125 2.84375 -0.984375 L 2.84375 -33.390625 C 2.84375 -34.035156 3.171875 -34.359375 3.828125 -34.359375 L 19.296875 -34.359375 C 19.953125 -34.359375 20.28125 -34.035156 20.28125 -33.390625 L 20.28125 -29.703125 C 20.28125 -29.046875 19.953125 -28.71875 19.296875 -28.71875 L 9.71875 -28.71875 L 9.71875 -20.28125 L 16.34375 -20.28125 C 17 -20.28125 17.328125 -19.953125 17.328125 -19.296875 L 17.328125 -15.609375 C 17.328125 -14.953125 17 -14.625 16.34375 -14.625 L 9.71875 -14.625 L 9.71875 -5.640625 Z M 19.78125 -5.640625 "/></g></g></g><g fill="#0d2648" fill-opacity="1"><g transform="translate(323.178646, 622.576853)"><g><path d="M 9.578125 0.25 C 7.316406 0.25 5.585938 -0.347656 4.390625 -1.546875 C 3.203125 -2.742188 2.609375 -4.488281 2.609375 -6.78125 L 2.609375 -27.640625 C 2.609375 -29.898438 3.203125 -31.625 4.390625 -32.8125 C 5.585938 -34.007812 7.316406 -34.609375 9.578125 -34.609375 L 15.859375 -34.609375 C 18.117188 -34.609375 19.84375 -34.007812 21.03125 -32.8125 C 22.226562 -31.625 22.828125 -29.898438 22.828125 -27.640625 L 22.828125 -23.71875 C 22.828125 -23.0625 22.5 -22.734375 21.84375 -22.734375 L 16.84375 -22.734375 C 16.1875 -22.734375 15.859375 -23.0625 15.859375 -23.71875 L 15.859375 -26.609375 C 15.859375 -27.585938 15.6875 -28.25 15.34375 -28.59375 C 15 -28.9375 14.335938 -29.109375 13.359375 -29.109375 L 11.984375 -29.109375 C 10.992188 -29.109375 10.328125 -28.9375 9.984375 -28.59375 C 9.640625 -28.25 9.46875 -27.585938 9.46875 -26.609375 L 9.46875 -7.8125 C 9.46875 -6.820312 9.640625 -6.15625 9.984375 -5.8125 C 10.328125 -5.46875 10.992188 -5.296875 11.984375 -5.296875 L 13.703125 -5.296875 C 14.679688 -5.296875 15.34375 -5.46875 15.6875 -5.8125 C 16.03125 -6.15625 16.203125 -6.820312 16.203125 -7.8125 L 16.203125 -13.15625 L 13.5 -13.15625 C 12.84375 -13.15625 12.515625 -13.484375 12.515625 -14.140625 L 12.515625 -17.421875 C 12.515625 -18.078125 12.84375 -18.40625 13.5 -18.40625 L 21.84375 -18.40625 C 22.5 -18.40625 22.828125 -18.078125 22.828125 -17.421875 L 22.828125 -6.78125 C 22.828125 -4.488281 22.226562 -2.742188 21.03125 -1.546875 C 19.84375 -0.347656 18.117188 0.25 15.859375 0.25 Z M 9.578125 0.25 "/></g></g></g><g fill="#0d2648" fill-opacity="1"><g transform="translate(348.607424, 622.576853)"><g><path d="M 23.078125 -1.328125 C 23.171875 -1.128906 23.21875 -0.945312 23.21875 -0.78125 C 23.21875 -0.257812 22.84375 0 22.09375 0 L 17.328125 0 C 17.035156 0 16.796875 -0.0546875 16.609375 -0.171875 C 16.429688 -0.285156 16.28125 -0.488281 16.15625 -0.78125 L 10.609375 -13.796875 L 9.71875 -13.796875 L 9.71875 -0.984375 C 9.71875 -0.328125 9.390625 0 8.734375 0 L 3.828125 0 C 3.171875 0 2.84375 -0.328125 2.84375 -0.984375 L 2.84375 -33.390625 C 2.84375 -34.035156 3.171875 -34.359375 3.828125 -34.359375 L 14.875 -34.359375 C 17.625 -34.359375 19.578125 -33.785156 20.734375 -32.640625 C 21.898438 -31.492188 22.484375 -29.53125 22.484375 -26.75 L 22.484375 -21.40625 C 22.484375 -19.175781 22.109375 -17.472656 21.359375 -16.296875 C 20.609375 -15.117188 19.378906 -14.367188 17.671875 -14.046875 Z M 9.71875 -29.109375 L 9.71875 -18.5625 L 13.15625 -18.5625 C 14.039062 -18.5625 14.671875 -18.75 15.046875 -19.125 C 15.421875 -19.5 15.609375 -20.128906 15.609375 -21.015625 L 15.609375 -26.65625 C 15.609375 -27.539062 15.421875 -28.171875 15.046875 -28.546875 C 14.671875 -28.921875 14.039062 -29.109375 13.15625 -29.109375 Z M 9.71875 -29.109375 "/></g></g></g><g fill="#0d2648" fill-opacity="1"><g transform="translate(372.907127, 622.576853)"><g><path d="M 21.703125 -1.234375 C 21.734375 -1.128906 21.75 -1.015625 21.75 -0.890625 C 21.75 -0.296875 21.40625 0 20.71875 0 L 16.046875 0 C 15.722656 0 15.476562 -0.0625 15.3125 -0.1875 C 15.15625 -0.320312 15.054688 -0.554688 15.015625 -0.890625 L 14.140625 -6.03125 L 7.703125 -6.03125 L 6.828125 -0.890625 C 6.796875 -0.554688 6.695312 -0.320312 6.53125 -0.1875 C 6.363281 -0.0625 6.117188 0 5.796875 0 L 1.171875 0 C 0.328125 0 -0.015625 -0.410156 0.140625 -1.234375 L 6.53125 -33.53125 C 6.59375 -33.851562 6.695312 -34.070312 6.84375 -34.1875 C 6.988281 -34.300781 7.226562 -34.359375 7.5625 -34.359375 L 14.28125 -34.359375 C 14.613281 -34.359375 14.851562 -34.300781 15 -34.1875 C 15.144531 -34.070312 15.25 -33.851562 15.3125 -33.53125 Z M 11.296875 -26.515625 L 10.5625 -26.515625 L 9.71875 -18.953125 L 8.34375 -11.296875 L 13.453125 -11.296875 L 12.125 -18.953125 Z M 11.296875 -26.515625 "/></g></g></g><g fill="#0d2648" fill-opacity="1"><g transform="translate(394.752319, 622.576853)"><g><path d="M 15.953125 -34.359375 C 18.242188 -34.359375 19.984375 -33.757812 21.171875 -32.5625 C 22.367188 -31.375 22.96875 -29.648438 22.96875 -27.390625 L 22.96875 -7.015625 C 22.96875 -4.722656 22.367188 -2.976562 21.171875 -1.78125 C 19.984375 -0.59375 18.242188 0 15.953125 0 L 3.828125 0 C 3.171875 0 2.84375 -0.328125 2.84375 -0.984375 L 2.84375 -33.390625 C 2.84375 -34.035156 3.171875 -34.359375 3.828125 -34.359375 Z M 16.109375 -26.125 C 16.109375 -27.101562 15.9375 -27.765625 15.59375 -28.109375 C 15.25 -28.453125 14.582031 -28.625 13.59375 -28.625 L 9.71875 -28.625 L 9.71875 -5.796875 L 13.59375 -5.796875 C 14.582031 -5.796875 15.25 -5.96875 15.59375 -6.3125 C 15.9375 -6.65625 16.109375 -7.316406 16.109375 -8.296875 Z M 16.109375 -26.125 "/></g></g></g><g fill="#0d2648" fill-opacity="1"><g transform="translate(420.328359, 622.576853)"><g><path d="M 9.578125 0.25 C 7.316406 0.25 5.585938 -0.347656 4.390625 -1.546875 C 3.203125 -2.742188 2.609375 -4.488281 2.609375 -6.78125 L 2.609375 -27.640625 C 2.609375 -29.898438 3.203125 -31.625 4.390625 -32.8125 C 5.585938 -34.007812 7.316406 -34.609375 9.578125 -34.609375 L 16.203125 -34.609375 C 18.492188 -34.609375 20.234375 -34.007812 21.421875 -32.8125 C 22.617188 -31.625 23.21875 -29.898438 23.21875 -27.640625 L 23.21875 -6.78125 C 23.21875 -4.488281 22.617188 -2.742188 21.421875 -1.546875 C 20.234375 -0.347656 18.492188 0.25 16.203125 0.25 Z M 13.84375 -5.546875 C 14.820312 -5.546875 15.484375 -5.71875 15.828125 -6.0625 C 16.171875 -6.40625 16.34375 -7.066406 16.34375 -8.046875 L 16.34375 -26.359375 C 16.34375 -27.347656 16.171875 -28.007812 15.828125 -28.34375 C 15.484375 -28.6875 14.820312 -28.859375 13.84375 -28.859375 L 11.984375 -28.859375 C 10.992188 -28.859375 10.328125 -28.6875 9.984375 -28.34375 C 9.640625 -28.007812 9.46875 -27.347656 9.46875 -26.359375 L 9.46875 -8.046875 C 9.46875 -7.066406 9.640625 -6.40625 9.984375 -6.0625 C 10.328125 -5.71875 10.992188 -5.546875 11.984375 -5.546875 Z M 13.84375 -5.546875 "/></g></g></g><g fill="#0d2648" fill-opacity="1"><g transform="translate(446.149843, 622.576853)"><g/></g></g><g fill="#0d2648" fill-opacity="1"><g transform="translate(455.722444, 622.576853)"><g><path d="M 3.828125 0 C 3.171875 0 2.84375 -0.328125 2.84375 -0.984375 L 2.84375 -33.390625 C 2.84375 -34.035156 3.171875 -34.359375 3.828125 -34.359375 L 9.765625 -34.359375 C 10.097656 -34.359375 10.34375 -34.289062 10.5 -34.15625 C 10.664062 -34.03125 10.78125 -33.820312 10.84375 -33.53125 L 15.171875 -17.421875 L 16.046875 -17.421875 L 20.328125 -33.53125 C 20.453125 -34.082031 20.828125 -34.359375 21.453125 -34.359375 L 27.390625 -34.359375 C 28.046875 -34.359375 28.375 -34.035156 28.375 -33.390625 L 28.375 -0.984375 C 28.375 -0.328125 28.046875 0 27.390625 0 L 22.734375 0 C 22.078125 0 21.75 -0.328125 21.75 -0.984375 L 21.75 -12.421875 L 24.0625 -24.796875 L 23.171875 -24.796875 L 18.171875 -8.203125 C 18.066406 -7.898438 17.929688 -7.679688 17.765625 -7.546875 C 17.609375 -7.421875 17.378906 -7.359375 17.078125 -7.359375 L 14.140625 -7.359375 C 13.804688 -7.359375 13.554688 -7.421875 13.390625 -7.546875 C 13.234375 -7.679688 13.109375 -7.898438 13.015625 -8.203125 L 8.046875 -24.796875 L 7.171875 -24.796875 L 9.46875 -12.421875 L 9.46875 -0.984375 C 9.46875 -0.328125 9.144531 0 8.5 0 Z M 3.828125 0 "/></g></g></g><g fill="#0d2648" fill-opacity="1"><g transform="translate(486.943874, 622.576853)"><g><path d="M 19.78125 -5.640625 C 20.4375 -5.640625 20.765625 -5.3125 20.765625 -4.65625 L 20.765625 -0.984375 C 20.765625 -0.328125 20.4375 0 19.78125 0 L 3.828125 0 C 3.171875 0 2.84375 -0.328125 2.84375 -0.984375 L 2.84375 -33.390625 C 2.84375 -34.035156 3.171875 -34.359375 3.828125 -34.359375 L 19.296875 -34.359375 C 19.953125 -34.359375 20.28125 -34.035156 20.28125 -33.390625 L 20.28125 -29.703125 C 20.28125 -29.046875 19.953125 -28.71875 19.296875 -28.71875 L 9.71875 -28.71875 L 9.71875 -20.28125 L 16.34375 -20.28125 C 17 -20.28125 17.328125 -19.953125 17.328125 -19.296875 L 17.328125 -15.609375 C 17.328125 -14.953125 17 -14.625 16.34375 -14.625 L 9.71875 -14.625 L 9.71875 -5.640625 Z M 19.78125 -5.640625 "/></g></g></g><g fill="#0d2648" fill-opacity="1"><g transform="translate(508.298143, 622.576853)"><g><path d="M 20.125 -34.359375 C 20.78125 -34.359375 21.109375 -34.035156 21.109375 -33.390625 L 21.109375 -29.453125 C 21.109375 -28.796875 20.78125 -28.46875 20.125 -28.46875 L 14.140625 -28.46875 L 14.140625 -0.984375 C 14.140625 -0.328125 13.8125 0 13.15625 0 L 8.25 0 C 7.59375 0 7.265625 -0.328125 7.265625 -0.984375 L 7.265625 -28.46875 L 1.234375 -28.46875 C 0.578125 -28.46875 0.25 -28.796875 0.25 -29.453125 L 0.25 -33.390625 C 0.25 -34.035156 0.578125 -34.359375 1.234375 -34.359375 Z M 20.125 -34.359375 "/></g></g></g><g fill="#0d2648" fill-opacity="1"><g transform="translate(529.652448, 622.576853)"><g><path d="M 23.078125 -1.328125 C 23.171875 -1.128906 23.21875 -0.945312 23.21875 -0.78125 C 23.21875 -0.257812 22.84375 0 22.09375 0 L 17.328125 0 C 17.035156 0 16.796875 -0.0546875 16.609375 -0.171875 C 16.429688 -0.285156 16.28125 -0.488281 16.15625 -0.78125 L 10.609375 -13.796875 L 9.71875 -13.796875 L 9.71875 -0.984375 C 9.71875 -0.328125 9.390625 0 8.734375 0 L 3.828125 0 C 3.171875 0 2.84375 -0.328125 2.84375 -0.984375 L 2.84375 -33.390625 C 2.84375 -34.035156 3.171875 -34.359375 3.828125 -34.359375 L 14.875 -34.359375 C 17.625 -34.359375 19.578125 -33.785156 20.734375 -32.640625 C 21.898438 -31.492188 22.484375 -29.53125 22.484375 -26.75 L 22.484375 -21.40625 C 22.484375 -19.175781 22.109375 -17.472656 21.359375 -16.296875 C 20.609375 -15.117188 19.378906 -14.367188 17.671875 -14.046875 Z M 9.71875 -29.109375 L 9.71875 -18.5625 L 13.15625 -18.5625 C 14.039062 -18.5625 14.671875 -18.75 15.046875 -19.125 C 15.421875 -19.5 15.609375 -20.128906 15.609375 -21.015625 L 15.609375 -26.65625 C 15.609375 -27.539062 15.421875 -28.171875 15.046875 -28.546875 C 14.671875 -28.921875 14.039062 -29.109375 13.15625 -29.109375 Z M 9.71875 -29.109375 "/></g></g></g><g fill="#0d2648" fill-opacity="1"><g transform="translate(553.95215, 622.576853)"><g><path d="M 9.578125 0.25 C 7.316406 0.25 5.585938 -0.347656 4.390625 -1.546875 C 3.203125 -2.742188 2.609375 -4.488281 2.609375 -6.78125 L 2.609375 -27.640625 C 2.609375 -29.898438 3.203125 -31.625 4.390625 -32.8125 C 5.585938 -34.007812 7.316406 -34.609375 9.578125 -34.609375 L 16.203125 -34.609375 C 18.492188 -34.609375 20.234375 -34.007812 21.421875 -32.8125 C 22.617188 -31.625 23.21875 -29.898438 23.21875 -27.640625 L 23.21875 -6.78125 C 23.21875 -4.488281 22.617188 -2.742188 21.421875 -1.546875 C 20.234375 -0.347656 18.492188 0.25 16.203125 0.25 Z M 13.84375 -5.546875 C 14.820312 -5.546875 15.484375 -5.71875 15.828125 -6.0625 C 16.171875 -6.40625 16.34375 -7.066406 16.34375 -8.046875 L 16.34375 -26.359375 C 16.34375 -27.347656 16.171875 -28.007812 15.828125 -28.34375 C 15.484375 -28.6875 14.820312 -28.859375 13.84375 -28.859375 L 11.984375 -28.859375 C 10.992188 -28.859375 10.328125 -28.6875 9.984375 -28.34375 C 9.640625 -28.007812 9.46875 -27.347656 9.46875 -26.359375 L 9.46875 -8.046875 C 9.46875 -7.066406 9.640625 -6.40625 9.984375 -6.0625 C 10.328125 -5.71875 10.992188 -5.546875 11.984375 -5.546875 Z M 13.84375 -5.546875 "/></g></g></g><g fill="#0d2648" fill-opacity="1"><g transform="translate(579.773671, 622.576853)"><g><path d="M 15.125 -34.359375 C 17.875 -34.359375 19.828125 -33.785156 20.984375 -32.640625 C 22.148438 -31.492188 22.734375 -29.53125 22.734375 -26.75 L 22.734375 -19.890625 C 22.734375 -17.140625 22.148438 -15.179688 20.984375 -14.015625 C 19.828125 -12.847656 17.875 -12.265625 15.125 -12.265625 L 9.71875 -12.265625 L 9.71875 -0.984375 C 9.71875 -0.328125 9.390625 0 8.734375 0 L 3.828125 0 C 3.171875 0 2.84375 -0.328125 2.84375 -0.984375 L 2.84375 -33.390625 C 2.84375 -34.035156 3.171875 -34.359375 3.828125 -34.359375 Z M 15.859375 -26.40625 C 15.859375 -27.289062 15.671875 -27.921875 15.296875 -28.296875 C 14.921875 -28.671875 14.289062 -28.859375 13.40625 -28.859375 L 9.71875 -28.859375 L 9.71875 -17.828125 L 13.40625 -17.828125 C 14.289062 -17.828125 14.921875 -18.015625 15.296875 -18.390625 C 15.671875 -18.765625 15.859375 -19.394531 15.859375 -20.28125 Z M 15.859375 -26.40625 "/></g></g></g><g fill="#0d2648" fill-opacity="1"><g transform="translate(603.827893, 622.576853)"><g><path d="M 9.578125 0.25 C 7.316406 0.25 5.585938 -0.347656 4.390625 -1.546875 C 3.203125 -2.742188 2.609375 -4.488281 2.609375 -6.78125 L 2.609375 -27.640625 C 2.609375 -29.898438 3.203125 -31.625 4.390625 -32.8125 C 5.585938 -34.007812 7.316406 -34.609375 9.578125 -34.609375 L 16.203125 -34.609375 C 18.492188 -34.609375 20.234375 -34.007812 21.421875 -32.8125 C 22.617188 -31.625 23.21875 -29.898438 23.21875 -27.640625 L 23.21875 -6.78125 C 23.21875 -4.488281 22.617188 -2.742188 21.421875 -1.546875 C 20.234375 -0.347656 18.492188 0.25 16.203125 0.25 Z M 13.84375 -5.546875 C 14.820312 -5.546875 15.484375 -5.71875 15.828125 -6.0625 C 16.171875 -6.40625 16.34375 -7.066406 16.34375 -8.046875 L 16.34375 -26.359375 C 16.34375 -27.347656 16.171875 -28.007812 15.828125 -28.34375 C 15.484375 -28.6875 14.820312 -28.859375 13.84375 -28.859375 L 11.984375 -28.859375 C 10.992188 -28.859375 10.328125 -28.6875 9.984375 -28.34375 C 9.640625 -28.007812 9.46875 -27.347656 9.46875 -26.359375 L 9.46875 -8.046875 C 9.46875 -7.066406 9.640625 -6.40625 9.984375 -6.0625 C 10.328125 -5.71875 10.992188 -5.546875 11.984375 -5.546875 Z M 13.84375 -5.546875 "/></g></g></g><g fill="#0d2648" fill-opacity="1"><g transform="translate(629.649414, 622.576853)"><g><path d="M 3.828125 0 C 3.171875 0 2.84375 -0.328125 2.84375 -0.984375 L 2.84375 -33.390625 C 2.84375 -34.035156 3.171875 -34.359375 3.828125 -34.359375 L 8.734375 -34.359375 C 9.390625 -34.359375 9.71875 -34.035156 9.71875 -33.390625 L 9.71875 -6.140625 L 18.796875 -6.140625 C 19.453125 -6.140625 19.78125 -5.8125 19.78125 -5.15625 L 19.78125 -0.984375 C 19.78125 -0.328125 19.453125 0 18.796875 0 Z M 3.828125 0 "/></g></g></g><g fill="#0d2648" fill-opacity="1"><g transform="translate(649.678263, 622.576853)"><g><path d="M 11.4375 -28.96875 L 11.4375 -5.40625 L 13.984375 -5.40625 C 14.640625 -5.40625 14.96875 -5.078125 14.96875 -4.421875 L 14.96875 -0.984375 C 14.96875 -0.328125 14.640625 0 13.984375 0 L 1.96875 0 C 1.3125 0 0.984375 -0.328125 0.984375 -0.984375 L 0.984375 -4.421875 C 0.984375 -5.078125 1.3125 -5.40625 1.96875 -5.40625 L 4.5625 -5.40625 L 4.5625 -28.96875 L 1.96875 -28.96875 C 1.3125 -28.96875 0.984375 -29.296875 0.984375 -29.953125 L 0.984375 -33.390625 C 0.984375 -34.035156 1.3125 -34.359375 1.96875 -34.359375 L 13.984375 -34.359375 C 14.640625 -34.359375 14.96875 -34.035156 14.96875 -33.390625 L 14.96875 -29.953125 C 14.96875 -29.296875 14.640625 -28.96875 13.984375 -28.96875 Z M 11.4375 -28.96875 "/></g></g></g><g fill="#0d2648" fill-opacity="1"><g transform="translate(665.632622, 622.576853)"><g><path d="M 20.125 -34.359375 C 20.78125 -34.359375 21.109375 -34.035156 21.109375 -33.390625 L 21.109375 -29.453125 C 21.109375 -28.796875 20.78125 -28.46875 20.125 -28.46875 L 14.140625 -28.46875 L 14.140625 -0.984375 C 14.140625 -0.328125 13.8125 0 13.15625 0 L 8.25 0 C 7.59375 0 7.265625 -0.328125 7.265625 -0.984375 L 7.265625 -28.46875 L 1.234375 -28.46875 C 0.578125 -28.46875 0.25 -28.796875 0.25 -29.453125 L 0.25 -33.390625 C 0.25 -34.035156 0.578125 -34.359375 1.234375 -34.359375 Z M 20.125 -34.359375 "/></g></g></g><g fill="#0d2648" fill-opacity="1"><g transform="translate(686.986926, 622.576853)"><g><path d="M 21.703125 -1.234375 C 21.734375 -1.128906 21.75 -1.015625 21.75 -0.890625 C 21.75 -0.296875 21.40625 0 20.71875 0 L 16.046875 0 C 15.722656 0 15.476562 -0.0625 15.3125 -0.1875 C 15.15625 -0.320312 15.054688 -0.554688 15.015625 -0.890625 L 14.140625 -6.03125 L 7.703125 -6.03125 L 6.828125 -0.890625 C 6.796875 -0.554688 6.695312 -0.320312 6.53125 -0.1875 C 6.363281 -0.0625 6.117188 0 5.796875 0 L 1.171875 0 C 0.328125 0 -0.015625 -0.410156 0.140625 -1.234375 L 6.53125 -33.53125 C 6.59375 -33.851562 6.695312 -34.070312 6.84375 -34.1875 C 6.988281 -34.300781 7.226562 -34.359375 7.5625 -34.359375 L 14.28125 -34.359375 C 14.613281 -34.359375 14.851562 -34.300781 15 -34.1875 C 15.144531 -34.070312 15.25 -33.851562 15.3125 -33.53125 Z M 11.296875 -26.515625 L 10.5625 -26.515625 L 9.71875 -18.953125 L 8.34375 -11.296875 L 13.453125 -11.296875 L 12.125 -18.953125 Z M 11.296875 -26.515625 "/></g></g></g><g fill="#0d2648" fill-opacity="1"><g transform="translate(708.832118, 622.576853)"><g><path d="M 3.828125 0 C 3.171875 0 2.84375 -0.328125 2.84375 -0.984375 L 2.84375 -33.390625 C 2.84375 -34.035156 3.171875 -34.359375 3.828125 -34.359375 L 9.078125 -34.359375 C 9.410156 -34.359375 9.65625 -34.289062 9.8125 -34.15625 C 9.976562 -34.03125 10.113281 -33.835938 10.21875 -33.578125 L 17.828125 -9.578125 L 18.65625 -9.578125 L 16.34375 -20.28125 L 16.34375 -33.390625 C 16.34375 -34.035156 16.671875 -34.359375 17.328125 -34.359375 L 22 -34.359375 C 22.644531 -34.359375 22.96875 -34.035156 22.96875 -33.390625 L 22.96875 -0.984375 C 22.96875 -0.328125 22.644531 0 22 0 L 16.6875 0 C 16.394531 0 16.164062 -0.0625 16 -0.1875 C 15.84375 -0.320312 15.710938 -0.535156 15.609375 -0.828125 L 8 -24.796875 L 7.125 -24.796875 L 9.46875 -14.09375 L 9.46875 -0.984375 C 9.46875 -0.328125 9.144531 0 8.5 0 Z M 3.828125 0 "/></g></g></g><g fill="#0d2648" fill-opacity="1"><g transform="translate(734.653638, 622.576853)"><g><path d="M 9.578125 0.25 C 7.316406 0.25 5.585938 -0.347656 4.390625 -1.546875 C 3.203125 -2.742188 2.609375 -4.488281 2.609375 -6.78125 L 2.609375 -27.640625 C 2.609375 -29.898438 3.203125 -31.625 4.390625 -32.8125 C 5.585938 -34.007812 7.316406 -34.609375 9.578125 -34.609375 L 16.203125 -34.609375 C 18.492188 -34.609375 20.234375 -34.007812 21.421875 -32.8125 C 22.617188 -31.625 23.21875 -29.898438 23.21875 -27.640625 L 23.21875 -6.78125 C 23.21875 -4.488281 22.617188 -2.742188 21.421875 -1.546875 C 20.234375 -0.347656 18.492188 0.25 16.203125 0.25 Z M 13.84375 -5.546875 C 14.820312 -5.546875 15.484375 -5.71875 15.828125 -6.0625 C 16.171875 -6.40625 16.34375 -7.066406 16.34375 -8.046875 L 16.34375 -26.359375 C 16.34375 -27.347656 16.171875 -28.007812 15.828125 -28.34375 C 15.484375 -28.6875 14.820312 -28.859375 13.84375 -28.859375 L 11.984375 -28.859375 C 10.992188 -28.859375 10.328125 -28.6875 9.984375 -28.34375 C 9.640625 -28.007812 9.46875 -27.347656 9.46875 -26.359375 L 9.46875 -8.046875 C 9.46875 -7.066406 9.640625 -6.40625 9.984375 -6.0625 C 10.328125 -5.71875 10.992188 -5.546875 11.984375 -5.546875 Z M 13.84375 -5.546875 "/></g></g></g><g clip-path="url(#96fff74982)"><g clip-path="url(#16dc1dcfa4)"><g clip-path="url(#a2ccbffd26)"><path fill="#5dae4b" d="M 153.464844 257.433594 L 256.789062 257.039062 C 258.949219 257.03125 260.710938 258.78125 260.71875 260.941406 C 260.726562 263.105469 258.980469 264.863281 256.816406 264.875 L 153.492188 265.265625 C 151.332031 265.273438 149.570312 263.527344 149.5625 261.363281 C 149.554688 259.199219 151.300781 257.441406 153.464844 257.433594 Z M 153.464844 257.433594 " fill-opacity="1" fill-rule="nonzero"/></g></g></g><g clip-path="url(#f4c83176fc)"><g clip-path="url(#c482595bde)"><g clip-path="url(#c5f21099d5)"><path fill="#5dae4b" d="M 129.859375 257.457031 L 137.410156 257.324219 C 139.636719 257.285156 141.472656 259.058594 141.515625 261.285156 C 141.554688 263.511719 139.78125 265.351562 137.554688 265.390625 L 130 265.523438 C 127.773438 265.5625 125.9375 263.789062 125.898438 261.5625 C 125.859375 259.335938 127.632812 257.5 129.859375 257.457031 Z M 129.859375 257.457031 " fill-opacity="1" fill-rule="nonzero"/></g></g></g><g clip-path="url(#04cdfdb6c8)"><g clip-path="url(#52794b36db)"><g clip-path="url(#965c4ad680)"><path fill="#f8bd00" d="M 98.429688 233.75 L 170.226562 233.480469 C 172.386719 233.472656 174.148438 235.21875 174.15625 237.378906 C 174.164062 239.542969 172.417969 241.304688 170.253906 241.3125 L 98.457031 241.582031 C 96.296875 241.59375 94.535156 239.84375 94.527344 237.683594 C 94.519531 235.519531 96.265625 233.757812 98.429688 233.75 Z M 98.429688 233.75 " fill-opacity="1" fill-rule="nonzero"/></g></g></g><g clip-path="url(#8a9b935627)"><g clip-path="url(#a0e5e9a333)"><g clip-path="url(#71980b1e06)"><path fill="#d0080f" d="M 185.566406 233.476562 L 202.085938 233.304688 C 204.25 233.28125 206.019531 235.015625 206.042969 237.179688 C 206.066406 239.339844 204.332031 241.113281 202.167969 241.136719 L 185.648438 241.308594 C 183.484375 241.332031 181.714844 239.597656 181.691406 237.433594 C 181.667969 235.269531 183.402344 233.5 185.566406 233.476562 Z M 185.566406 233.476562 " fill-opacity="1" fill-rule="nonzero"/></g></g></g><g clip-path="url(#3c56e0a0ef)"><g clip-path="url(#d533cb1c80)"><g clip-path="url(#cb47038d52)"><path fill="#d0080f" d="M 217.105469 233.300781 L 299.898438 232.988281 C 302.0625 232.980469 303.820312 234.726562 303.832031 236.890625 C 303.839844 239.050781 302.089844 240.8125 299.929688 240.820312 L 217.136719 241.132812 C 214.972656 241.140625 213.214844 239.394531 213.207031 237.234375 C 213.195312 235.070312 214.945312 233.308594 217.105469 233.300781 Z M 217.105469 233.300781 " fill-opacity="1" fill-rule="nonzero"/></g></g></g><g clip-path="url(#dbd3e9a173)"><g clip-path="url(#b9a3ba8ae6)"><g clip-path="url(#957506b538)"><path fill="#f8bd00" d="M 76.085938 233.835938 L 83.042969 233.808594 C 85.207031 233.800781 86.96875 235.546875 86.976562 237.710938 C 86.984375 239.875 85.238281 241.632812 83.074219 241.640625 L 76.113281 241.667969 C 73.953125 241.675781 72.191406 239.929688 72.183594 237.765625 C 72.175781 235.605469 73.921875 233.84375 76.085938 233.835938 Z M 76.085938 233.835938 " fill-opacity="1" fill-rule="nonzero"/></g></g></g><g clip-path="url(#c991ee3f05)"><g clip-path="url(#11de91cbd8)"><g clip-path="url(#e8e291c3bc)"><path fill="#0d2648" d="M 93.226562 213.832031 L 236.839844 213.289062 C 239.003906 213.28125 240.761719 215.027344 240.769531 217.191406 C 240.777344 219.351562 239.03125 221.113281 236.871094 221.121094 L 93.253906 221.664062 C 91.09375 221.671875 89.332031 219.925781 89.324219 217.765625 C 89.316406 215.601562 91.0625 213.839844 93.226562 213.832031 Z M 93.226562 213.832031 " fill-opacity="1" fill-rule="nonzero"/></g></g></g><g clip-path="url(#7ca58be866)"><g clip-path="url(#f82b310fa8)"><g clip-path="url(#56be91d062)"><path fill="#5dae4b" d="M 391.636719 257.433594 L 494.960938 257.039062 C 497.125 257.03125 498.882812 258.78125 498.890625 260.941406 C 498.898438 263.105469 497.152344 264.863281 494.992188 264.875 L 391.664062 265.265625 C 389.503906 265.273438 387.742188 263.527344 387.734375 261.363281 C 387.726562 259.199219 389.472656 257.441406 391.636719 257.433594 Z M 391.636719 257.433594 " fill-opacity="1" fill-rule="nonzero"/></g></g></g><g clip-path="url(#4dbbb960d3)"><g clip-path="url(#08f270c7ce)"><g clip-path="url(#814e6711ca)"><path fill="#5dae4b" d="M 368.03125 257.457031 L 375.582031 257.324219 C 377.808594 257.285156 379.648438 259.058594 379.6875 261.285156 C 379.726562 263.511719 377.953125 265.351562 375.726562 265.390625 L 368.175781 265.523438 C 365.949219 265.5625 364.109375 263.789062 364.070312 261.5625 C 364.03125 259.335938 365.804688 257.5 368.03125 257.457031 Z M 368.03125 257.457031 " fill-opacity="1" fill-rule="nonzero"/></g></g></g><g clip-path="url(#f7047d8a6b)"><g clip-path="url(#1db73a82b5)"><g clip-path="url(#82c29950fa)"><path fill="#d0080f" d="M 336.601562 233.75 L 408.398438 233.480469 C 410.5625 233.472656 412.320312 235.21875 412.328125 237.378906 C 412.335938 239.542969 410.589844 241.304688 408.429688 241.3125 L 336.632812 241.582031 C 334.46875 241.59375 332.707031 239.84375 332.699219 237.683594 C 332.691406 235.519531 334.4375 233.757812 336.601562 233.75 Z M 336.601562 233.75 " fill-opacity="1" fill-rule="nonzero"/></g></g></g><g clip-path="url(#306be0d7d2)"><g clip-path="url(#8f2003a00b)"><g clip-path="url(#59df8d3d8d)"><path fill="#f8bd00" d="M 423.738281 233.476562 L 440.257812 233.304688 C 442.421875 233.28125 444.191406 235.015625 444.214844 237.179688 C 444.238281 239.339844 442.503906 241.113281 440.339844 241.136719 L 423.820312 241.308594 C 421.660156 241.332031 419.886719 239.597656 419.863281 237.433594 C 419.84375 235.269531 421.578125 233.5 423.738281 233.476562 Z M 423.738281 233.476562 " fill-opacity="1" fill-rule="nonzero"/></g></g></g><g clip-path="url(#bd1fe52f39)"><g clip-path="url(#ea9e6754ee)"><g clip-path="url(#b0e34de7aa)"><path fill="#f8bd00" d="M 455.28125 233.300781 L 538.070312 232.988281 C 540.234375 232.980469 541.996094 234.726562 542.003906 236.890625 C 542.011719 239.050781 540.265625 240.8125 538.101562 240.820312 L 455.308594 241.132812 C 453.144531 241.140625 451.386719 239.394531 451.378906 237.234375 C 451.371094 235.070312 453.117188 233.308594 455.28125 233.300781 Z M 455.28125 233.300781 " fill-opacity="1" fill-rule="nonzero"/></g></g></g><g clip-path="url(#0a33e6eb76)"><g clip-path="url(#bc0570d41f)"><g clip-path="url(#5707b3d6ac)"><path fill="#d0080f" d="M 314.257812 233.835938 L 321.21875 233.808594 C 323.378906 233.800781 325.140625 235.546875 325.148438 237.710938 C 325.15625 239.875 323.410156 241.632812 321.246094 241.640625 L 314.289062 241.667969 C 312.125 241.675781 310.363281 239.929688 310.355469 237.765625 C 310.347656 235.605469 312.09375 233.84375 314.257812 233.835938 Z M 314.257812 233.835938 " fill-opacity="1" fill-rule="nonzero"/></g></g></g><g clip-path="url(#63f3700cf9)"><g clip-path="url(#369201f00c)"><g clip-path="url(#292caef4d6)"><path fill="#0d2648" d="M 331.398438 213.832031 L 475.011719 213.289062 C 477.175781 213.28125 478.9375 215.027344 478.945312 217.191406 C 478.953125 219.351562 477.207031 221.113281 475.042969 221.121094 L 331.425781 221.664062 C 329.265625 221.671875 327.503906 219.925781 327.496094 217.765625 C 327.488281 215.601562 329.234375 213.839844 331.398438 213.832031 Z M 331.398438 213.832031 " fill-opacity="1" fill-rule="nonzero"/></g></g></g><g clip-path="url(#fd91117b01)"><g clip-path="url(#63e0e79d37)"><g clip-path="url(#de5ce3656d)"><path fill="#5dae4b" d="M 656.871094 217.679688 L 553.550781 216.539062 C 551.390625 216.515625 549.65625 214.742188 549.679688 212.578125 C 549.703125 210.417969 551.476562 208.683594 553.640625 208.707031 L 656.957031 209.851562 C 659.121094 209.875 660.855469 211.644531 660.832031 213.808594 C 660.804688 215.972656 659.035156 217.707031 656.871094 217.679688 Z M 656.871094 217.679688 " fill-opacity="1" fill-rule="nonzero"/></g></g></g><g clip-path="url(#a2e68d723e)"><g clip-path="url(#9612602956)"><g clip-path="url(#a4aaa06907)"><path fill="#5dae4b" d="M 680.472656 218.007812 L 672.921875 218.027344 C 670.691406 218.035156 668.882812 216.234375 668.875 214.007812 C 668.871094 211.78125 670.671875 209.96875 672.898438 209.960938 L 680.449219 209.941406 C 682.675781 209.933594 684.488281 211.734375 684.496094 213.960938 C 684.5 216.1875 682.699219 218 680.472656 218.007812 Z M 680.472656 218.007812 " fill-opacity="1" fill-rule="nonzero"/></g></g></g><g clip-path="url(#28b794a9b0)"><g clip-path="url(#609eb44694)"><g clip-path="url(#7daf1476a1)"><path fill="#d0080f" d="M 711.546875 242.175781 L 639.753906 241.382812 C 637.59375 241.359375 635.859375 239.585938 635.882812 237.425781 C 635.90625 235.261719 637.679688 233.527344 639.839844 233.550781 L 711.632812 234.347656 C 713.796875 234.371094 715.53125 236.140625 715.507812 238.304688 C 715.484375 240.46875 713.710938 242.203125 711.546875 242.175781 Z M 711.546875 242.175781 " fill-opacity="1" fill-rule="nonzero"/></g></g></g><g clip-path="url(#2e11234b90)"><g clip-path="url(#4aee3fe6aa)"><g clip-path="url(#d994a3b1e7)"><path fill="#f8bd00" d="M 624.414062 241.15625 L 607.894531 241.085938 C 605.734375 241.078125 603.988281 239.316406 603.996094 237.152344 C 604.007812 234.988281 605.765625 233.246094 607.929688 233.253906 L 624.449219 233.324219 C 626.613281 233.335938 628.359375 235.097656 628.347656 237.257812 C 628.339844 239.421875 626.578125 241.167969 624.414062 241.15625 Z M 624.414062 241.15625 " fill-opacity="1" fill-rule="nonzero"/></g></g></g><g clip-path="url(#76cd70e627)"><g clip-path="url(#4fcb6f6a8c)"><g clip-path="url(#51d2167a28)"><path fill="#f8bd00" d="M 592.875 240.863281 L 510.085938 239.949219 C 507.925781 239.925781 506.191406 238.152344 506.214844 235.988281 C 506.238281 233.828125 508.011719 232.09375 510.175781 232.117188 L 592.964844 233.03125 C 595.125 233.054688 596.859375 234.828125 596.835938 236.992188 C 596.8125 239.15625 595.039062 240.886719 592.875 240.863281 Z M 592.875 240.863281 " fill-opacity="1" fill-rule="nonzero"/></g></g></g><g clip-path="url(#58876e3763)"><g clip-path="url(#3396187ad4)"><g clip-path="url(#69a4dd86ec)"><path fill="#d0080f" d="M 733.890625 242.425781 L 726.929688 242.347656 C 724.769531 242.324219 723.035156 240.550781 723.058594 238.386719 C 723.082031 236.226562 724.855469 234.492188 727.015625 234.515625 L 733.976562 234.59375 C 736.140625 234.617188 737.875 236.390625 737.847656 238.550781 C 737.824219 240.714844 736.050781 242.449219 733.890625 242.425781 Z M 733.890625 242.425781 " fill-opacity="1" fill-rule="nonzero"/></g></g></g><g clip-path="url(#7cf60af076)"><g clip-path="url(#9ea2613960)"><g clip-path="url(#91d6fb13f0)"><path fill="#0d2648" d="M 716.453125 262.171875 L 572.847656 260.582031 C 570.683594 260.558594 568.949219 258.785156 568.976562 256.621094 C 569 254.460938 570.773438 252.726562 572.933594 252.75 L 716.542969 254.339844 C 718.703125 254.363281 720.4375 256.136719 720.414062 258.296875 C 720.390625 260.460938 718.617188 262.195312 716.453125 262.171875 Z M 716.453125 262.171875 " fill-opacity="1" fill-rule="nonzero"/></g></g></g></svg>